<svg width="150" height="150" viewBox="0 0 150 150" fill="none" xmlns="http://www.w3.org/2000/svg">
<g clip-path="url(#clip0_139_39305)">
<path d="M20.205 61.185C27.2218 61.185 32.91 55.4967 32.91 48.48C32.91 41.4632 27.2218 35.775 20.205 35.775C13.1882 35.775 7.5 41.4632 7.5 48.48C7.5 55.4967 13.1882 61.185 20.205 61.185Z" fill="#A51318"/>
<path d="M97.0488 116.7L121.694 108.645L116.339 134.01L97.0488 116.7Z" fill="#A51318"/>
<path d="M139.545 21.705L118.365 23.595L129.18 41.91L108 43.815L118.815 62.13L97.6201 64.035L108.435 82.365" stroke="#A51318" stroke-width="4.5" stroke-linecap="round" stroke-linejoin="round"/>
<path d="M112.141 33.8549L90.9608 35.7599L101.776 54.0749L80.5958 55.9799L91.4108 74.2949L70.2158 76.1999L81.0308 94.5149" stroke="#A51318" stroke-width="4.5" stroke-linecap="round" stroke-linejoin="round"/>
<path d="M109.02 119.49L133.65 111.435L128.31 136.8L109.02 119.49Z" stroke="#A51318" stroke-width="4.5" stroke-linecap="round" stroke-linejoin="round"/>
<path d="M26.4892 49.5149C19.4692 49.5149 13.7842 43.8299 13.7842 36.8099C13.7842 29.7899 19.4692 24.1049 26.4892 24.1049C33.5092 24.1049 39.1942 29.7899 39.1942 36.8099C39.1942 43.8299 33.5092 49.5149 26.4892 49.5149Z" stroke="#A51318" stroke-width="4.5" stroke-linecap="round" stroke-linejoin="round"/>
<path d="M52.7827 65.85L41.0527 77.58" stroke="#A51318" stroke-width="4.5" stroke-linecap="round" stroke-linejoin="round"/>
<path d="M52.7827 77.58L41.0527 65.85" stroke="#A51318" stroke-width="4.5" stroke-linecap="round" stroke-linejoin="round"/>
<path d="M41.0537 138.225V113.01H15.8387V138.225H41.0537Z" stroke="#A51318" stroke-width="4.5" stroke-linecap="round" stroke-linejoin="round"/>
<path d="M52.6201 126.645V101.43H27.4051V126.645H52.6201Z" stroke="#A51318" stroke-width="4.5" stroke-linecap="round" stroke-linejoin="round"/>
<path d="M68.6564 130.26C65.7014 130.26 63.3164 127.875 63.3164 124.92C63.3164 121.965 65.7014 119.58 68.6564 119.58C71.6114 119.58 73.9964 121.965 73.9964 124.92C73.9964 127.875 71.6114 130.26 68.6564 130.26Z" stroke="#A51318" stroke-width="4.5" stroke-linecap="round" stroke-linejoin="round"/>
<path d="M126.96 94.335C124.005 94.335 121.62 91.95 121.62 88.995C121.62 86.04 124.005 83.655 126.96 83.655C129.915 83.655 132.3 86.04 132.3 88.995C132.3 91.95 129.915 94.335 126.96 94.335Z" fill="#A51318"/>
<path d="M70.4411 42.3449C71.6861 43.2149 73.4111 42.9149 74.2811 41.6549C75.1511 40.4099 74.8511 38.6849 73.6061 37.8149C72.3611 36.9449 70.6361 37.2449 69.7661 38.4899C68.8961 39.7349 69.1961 41.4599 70.4561 42.3299L70.4411 42.3449Z" fill="#A51318"/>
<path d="M62.0713 36.4349C63.3163 37.3049 65.0413 37.0049 65.9113 35.7449C66.7813 34.4999 66.4813 32.7749 65.2213 31.9049C63.9763 31.0349 62.2513 31.3349 61.3813 32.5949C60.5113 33.8399 60.8113 35.5649 62.0713 36.4349Z" fill="#A51318"/>
<path d="M53.8799 30.795C55.1249 31.665 56.8499 31.365 57.7199 30.105C58.5899 28.86 58.2899 27.135 57.0299 26.265C55.7849 25.395 54.0599 25.695 53.1899 26.94C52.3199 28.185 52.6199 29.91 53.8799 30.78V30.795Z" fill="#A51318"/>
<path d="M76.3038 33.945C77.5488 34.815 79.2738 34.515 80.1438 33.27C81.0138 32.025 80.7138 30.3 79.4538 29.43C78.2088 28.56 76.4838 28.86 75.6138 30.105C74.7438 31.35 75.0438 33.075 76.3038 33.945Z" fill="#A51318"/>
<path d="M67.919 28.05C69.164 28.92 70.889 28.62 71.759 27.375C72.629 26.13 72.329 24.405 71.069 23.535C69.824 22.665 68.099 22.965 67.229 24.225C66.359 25.47 66.659 27.195 67.919 28.065V28.05Z" fill="#A51318"/>
<path d="M59.7314 22.4101C60.9764 23.2801 62.7014 22.9801 63.5714 21.7201C64.4414 20.4751 64.1414 18.7501 62.8814 17.8801C61.6364 17.0101 59.9114 17.3101 59.0414 18.5551C58.1714 19.8001 58.4714 21.5251 59.7164 22.3951L59.7314 22.4101Z" fill="#A51318"/>
<path d="M82.1552 25.5599C83.4002 26.4299 85.1252 26.1299 85.9952 24.8699C86.8652 23.6249 86.5652 21.8999 85.3052 21.0299C84.0602 20.1599 82.3352 20.4599 81.4652 21.7199C80.5952 22.9649 80.8952 24.6899 82.1402 25.5599H82.1552Z" fill="#A51318"/>
<path d="M73.7696 19.65C75.0146 20.52 76.7396 20.22 77.6096 18.96C78.4796 17.715 78.1796 15.99 76.9196 15.12C75.6746 14.25 73.9496 14.55 73.0796 15.81C72.2096 17.055 72.5096 18.78 73.7696 19.65Z" fill="#A51318"/>
<path d="M65.5954 14.01C66.8404 14.88 68.5654 14.58 69.4354 13.335C70.3054 12.09 70.0054 10.365 68.7604 9.49498C67.5154 8.62498 65.7904 8.92498 64.9204 10.185C64.0504 11.43 64.3504 13.155 65.6104 14.025L65.5954 14.01Z" fill="#A51318"/>
</g>
<defs>
<clipPath id="clip0_139_39305">
<rect width="134.295" height="131.475" fill="white" transform="translate(7.5 9)"/>
</clipPath>
</defs>
</svg>
