<svg width="127" height="40" viewBox="0 0 127 40" fill="none" xmlns="http://www.w3.org/2000/svg">
<path d="M125.681 9.18518H121.032C120.627 9.18518 120.425 9.39575 120.425 9.81689V9.98535C120.425 10.4402 120.627 10.6634 121.032 10.6634H122.316C122.404 10.6634 122.451 10.7097 122.451 10.7982V16.294C122.451 16.732 122.649 16.9805 123.045 17.0353C123.099 17.0437 123.163 17.0479 123.226 17.0479H123.432C123.958 17.0479 124.22 16.7952 124.22 16.294V10.7982C124.22 10.7097 124.266 10.6634 124.354 10.6634H125.677C126.081 10.6634 126.283 10.4528 126.283 10.0317V9.86322C126.283 9.40838 126.081 9.18518 125.677 9.18518H125.681ZM111.682 9.18518H107.033C106.629 9.18518 106.426 9.39575 106.426 9.81689V9.98535C106.426 10.4402 106.629 10.6634 107.033 10.6634H108.317C108.406 10.6634 108.452 10.7097 108.452 10.7982V16.294C108.452 16.732 108.65 16.9805 109.046 17.0353C109.101 17.0437 109.164 17.0479 109.227 17.0479H109.433C109.96 17.0479 110.221 16.7952 110.221 16.294V10.7982C110.221 10.7097 110.267 10.6634 110.356 10.6634H111.678C112.082 10.6634 112.284 10.4528 112.284 10.0317V9.86322C112.284 9.40838 112.082 9.18518 111.678 9.18518H111.682ZM58.9259 9.8548C58.9259 9.61053 58.8627 9.43787 58.7363 9.32837C58.61 9.21887 58.4289 9.16412 58.1973 9.16412H58.0162C57.7804 9.16412 57.6035 9.21887 57.4771 9.32837C57.3508 9.43787 57.2876 9.61474 57.2876 9.8548V13.6998C57.2876 13.763 57.275 13.7967 57.2497 13.7967C57.2244 13.7967 57.2034 13.7883 57.1908 13.7672C57.1739 13.7461 57.1529 13.7167 57.1318 13.6745L54.6218 9.75372C54.3691 9.37469 54.0196 9.18518 53.5647 9.18518H53.371C53.152 9.18518 52.9836 9.24414 52.8614 9.36627C52.7393 9.4884 52.6803 9.65686 52.6803 9.87585V16.3572C52.6803 16.6015 52.7435 16.7741 52.8698 16.8836C52.8993 16.9089 52.9414 16.9215 52.9751 16.9426C53.0257 16.9721 53.0762 16.9974 53.1394 17.0142C53.2194 17.0353 53.3078 17.0479 53.4089 17.0479H53.59C53.8258 17.0479 54.0027 16.9931 54.1291 16.8836C54.2554 16.7741 54.3186 16.5973 54.3186 16.3572V12.4364C54.3186 12.3648 54.327 12.3269 54.3438 12.3269C54.3481 12.3269 54.3565 12.3353 54.3649 12.3395C54.3944 12.3522 54.4239 12.3901 54.466 12.4617L57.0391 16.4667C57.0939 16.5552 57.1571 16.6352 57.2244 16.7026C57.2918 16.7699 57.3634 16.8289 57.4392 16.8794C57.4729 16.9005 57.5192 16.9089 57.5571 16.9258C57.6961 16.9847 57.8604 17.0226 58.0709 17.0226H58.252C58.7069 17.0226 58.9301 16.7952 58.9301 16.3446V9.8548H58.9259ZM75.6915 9.95166C75.7168 9.84637 75.7294 9.74951 75.7294 9.66107C75.7294 9.51367 75.6915 9.39575 75.6157 9.29889C75.5399 9.20203 75.4093 9.15149 75.2324 9.15149H74.6723C74.4618 9.15149 74.3017 9.20624 74.1922 9.31573C74.0827 9.42523 74.0027 9.58105 73.9564 9.7832L72.8277 14.3105C72.8109 14.3905 72.7898 14.4326 72.7688 14.4326C72.7351 14.4326 72.7098 14.3905 72.6845 14.3105L71.3874 9.69897C71.3453 9.54736 71.2653 9.42102 71.1432 9.32416C71.021 9.22729 70.8821 9.17676 70.7178 9.17676H70.1366C69.9766 9.17676 69.8376 9.22729 69.7239 9.32416C69.6102 9.42102 69.5344 9.54736 69.4923 9.69897L68.2078 14.3105C68.1825 14.3905 68.1615 14.4326 68.1489 14.4326C68.1152 14.4326 68.0941 14.3905 68.0773 14.3105L66.9486 9.79584C66.8981 9.59369 66.8223 9.43786 66.7128 9.32416C66.6033 9.21045 66.4432 9.1557 66.2327 9.1557H65.6262C65.4409 9.1557 65.3061 9.20624 65.2261 9.30731C65.1461 9.40838 65.104 9.53052 65.104 9.67792C65.104 9.77478 65.1208 9.87164 65.1545 9.9685L66.9486 16.5215C66.9907 16.6815 67.0749 16.8205 67.2097 16.93C67.2771 16.9847 67.3529 17.0268 67.4371 17.0521C67.5214 17.0774 67.6182 17.0942 67.7235 17.0942H68.3678C68.5784 17.0942 68.7469 17.0395 68.8774 16.93C69.008 16.8205 69.0922 16.6857 69.1343 16.5215L70.3093 12.2258C70.3346 12.129 70.3598 12.0784 70.3809 12.0784C70.4062 12.0784 70.4314 12.129 70.4525 12.2258L71.6654 16.4962C71.7159 16.6731 71.8044 16.8163 71.9391 16.9258C72.0065 16.9805 72.0823 17.0226 72.1665 17.0479C72.2508 17.0732 72.3476 17.09 72.4529 17.09H73.1436C73.3626 17.09 73.5352 17.0353 73.6574 16.9258C73.7837 16.8163 73.868 16.6731 73.9185 16.4962L75.6915 9.95587V9.95166ZM104.615 9.15149H104.034C103.815 9.15149 103.659 9.20624 103.567 9.31994C103.474 9.43365 103.382 9.57684 103.293 9.75793L102.118 12.0995C102.072 12.1879 102.038 12.2342 102.021 12.2342C101.996 12.2342 101.966 12.1879 101.924 12.0995L100.737 9.79584C100.64 9.60211 100.543 9.44629 100.446 9.32837C100.349 9.21045 100.189 9.15149 99.9619 9.15149H99.3681C99.1996 9.15149 99.0648 9.20203 98.968 9.3031C98.8711 9.40417 98.8206 9.52209 98.8206 9.66107C98.8206 9.74951 98.85 9.85058 98.9048 9.96429L101.015 13.8851C101.065 13.9567 101.086 14.0409 101.086 14.1378V16.2983C101.086 16.7362 101.288 16.9847 101.689 17.0395C101.748 17.0479 101.806 17.0521 101.874 17.0521H102.08C102.598 17.0521 102.855 16.7994 102.855 16.2983V14.1504C102.855 14.062 102.88 13.9736 102.927 13.8851L105.049 9.9306C105.104 9.81689 105.133 9.72003 105.133 9.64001C105.133 9.50104 105.087 9.38733 104.995 9.29468C104.902 9.20203 104.776 9.1557 104.611 9.1557L104.615 9.15149ZM96.0958 12.5585L95.064 12.1332C94.7902 12.0195 94.5839 11.9015 94.4533 11.7794C94.3186 11.6573 94.2512 11.4762 94.2512 11.2319C94.2512 10.975 94.327 10.7855 94.4828 10.6718C94.6344 10.5581 94.8534 10.5034 95.1398 10.5034C95.224 10.5034 95.2998 10.516 95.3756 10.5244C95.4472 10.5328 95.523 10.5328 95.5862 10.5455C95.7252 10.5749 95.8515 10.6044 95.9694 10.6423C96.0874 10.6802 96.1969 10.7097 96.3021 10.7392C96.4074 10.7687 96.5085 10.7813 96.6054 10.7813C96.7443 10.7813 96.8538 10.7434 96.9339 10.6718C97.0139 10.6002 97.0855 10.4823 97.1529 10.318C97.195 10.2043 97.216 10.1117 97.2244 10.0401C97.2329 9.9685 97.2371 9.90533 97.2371 9.85901C97.2371 9.59369 97.0855 9.40417 96.7865 9.29889C96.5338 9.20203 96.26 9.13464 95.961 9.09674C95.662 9.05884 95.3546 9.04199 95.0387 9.04199C94.6765 9.04199 94.3354 9.09253 94.0196 9.19782C93.7037 9.3031 93.43 9.45471 93.1941 9.65265C92.9583 9.85058 92.7772 10.0991 92.6424 10.3939C92.5077 10.6887 92.4403 11.0298 92.4403 11.4172C92.4403 12.0321 92.5961 12.5206 92.912 12.887C93.2278 13.2492 93.6574 13.5398 94.1964 13.7504L95.0345 14.0788C95.2872 14.1757 95.4725 14.2852 95.5988 14.4115C95.7252 14.5379 95.7884 14.719 95.7884 14.9506C95.7884 15.2159 95.6873 15.4096 95.4893 15.5191C95.2914 15.6329 95.0387 15.6876 94.7313 15.6876C94.466 15.6876 94.2133 15.6581 93.9774 15.5949C93.7416 15.536 93.5226 15.4686 93.3205 15.3928C93.2699 15.376 93.2194 15.3633 93.1689 15.3507C93.1183 15.3381 93.0678 15.3338 93.0299 15.3338C92.7772 15.3338 92.6045 15.4812 92.5077 15.7718C92.4656 15.9024 92.4403 15.9992 92.4277 16.0624C92.415 16.1256 92.4108 16.1845 92.4108 16.2309C92.4108 16.3699 92.4529 16.4793 92.5329 16.5636C92.613 16.6478 92.7309 16.7236 92.8867 16.7868C93.1436 16.9005 93.4342 16.9889 93.7542 17.0479C94.0406 17.1026 94.348 17.1279 94.6723 17.1321C94.7102 17.1321 94.7439 17.1363 94.7818 17.1363C95.2198 17.1363 95.6157 17.0858 95.9694 16.9805C96.3274 16.8752 96.6306 16.7194 96.8875 16.5088C97.1444 16.2983 97.3382 16.0414 97.4771 15.7339C97.6161 15.4265 97.6835 15.0685 97.6835 14.6558C97.6835 14.0957 97.5403 13.6577 97.2581 13.3334C96.976 13.0091 96.5885 12.748 96.0916 12.5459L96.0958 12.5585ZM89.248 14.0536C89.2228 14.003 89.2101 13.9736 89.2101 13.9567C89.2101 13.9314 89.2185 13.9146 89.2354 13.9062C89.2522 13.8978 89.2691 13.8851 89.2859 13.8683C90.0229 13.464 90.3893 12.748 90.3893 11.7205C90.3893 10.8866 90.1703 10.2549 89.7281 9.82953C89.2859 9.39996 88.6079 9.18518 87.694 9.18518H85.5588C85.3567 9.18518 85.1967 9.24414 85.0745 9.36627C84.9524 9.4884 84.8934 9.64843 84.8934 9.85058V16.294C84.8934 16.6689 85.0408 16.9047 85.3356 16.9974C85.4325 17.0268 85.5504 17.0437 85.681 17.0437H85.8621C86.3885 17.0437 86.6496 16.791 86.6496 16.2898V14.3863C86.6496 14.2978 86.6959 14.2515 86.7843 14.2515H87.1381C87.1634 14.2515 87.2013 14.2515 87.2602 14.2473C87.315 14.2473 87.3571 14.2431 87.3824 14.2431C87.4624 14.2431 87.5256 14.281 87.5635 14.3526L88.7384 16.4625C88.8353 16.6394 88.9448 16.7826 89.0669 16.8879C89.1259 16.9384 89.1975 16.9805 89.2817 17.0058C89.366 17.031 89.4586 17.0437 89.5639 17.0437H90.2082C90.3767 17.0437 90.5072 17.0016 90.5915 16.9173C90.6757 16.8331 90.7178 16.7278 90.7178 16.6099C90.7178 16.513 90.6841 16.412 90.621 16.3067L89.248 14.0494V14.0536ZM88.4815 12.2764C88.4268 12.4195 88.3426 12.529 88.2331 12.6048C88.1236 12.6807 87.993 12.7354 87.8372 12.7607C87.6814 12.7902 87.5045 12.8028 87.3024 12.8028H86.7801C86.6917 12.8028 86.6454 12.7565 86.6454 12.668V10.7771C86.6454 10.6887 86.6917 10.6423 86.7801 10.6423H87.3024C87.5045 10.6423 87.6814 10.655 87.8372 10.6844C87.9888 10.7139 88.1236 10.7687 88.2331 10.8487C88.3426 10.9287 88.4268 11.0424 88.4815 11.1814C88.5363 11.3246 88.5658 11.5015 88.5658 11.7205C88.5658 11.9394 88.5363 12.1332 88.4815 12.2721V12.2764ZM118.593 15.557H115.767C115.679 15.557 115.633 15.5149 115.633 15.4349V13.9062C115.633 13.8177 115.679 13.7714 115.767 13.7714H117.321C117.726 13.7714 117.928 13.5608 117.928 13.1397V12.9712C117.928 12.5417 117.726 12.3269 117.321 12.3269H115.767C115.679 12.3269 115.633 12.2806 115.633 12.1921V10.7855C115.633 10.6971 115.679 10.6508 115.767 10.6508H118.425C118.829 10.6508 119.031 10.4402 119.031 10.019V9.83795C119.031 9.39996 118.829 9.18097 118.425 9.18097H114.529C114.327 9.18097 114.167 9.23993 114.045 9.36206C113.923 9.48419 113.864 9.64422 113.864 9.84637V16.3488C113.864 16.5509 113.923 16.711 114.045 16.8331C114.167 16.9552 114.327 17.0142 114.529 17.0142H118.593C118.997 17.0142 119.2 16.8036 119.2 16.3825V16.214C119.2 15.7676 118.997 15.5486 118.593 15.5486V15.557ZM61.6001 16.9426C61.7222 17.0142 61.8823 17.0479 62.0802 17.0479H62.2739C62.8004 17.0479 63.0615 16.7952 63.0615 16.294V9.90954C63.0615 9.40838 62.8004 9.1557 62.2739 9.1557H62.0802C61.5538 9.1557 61.2927 9.40838 61.2927 9.90954V16.294C61.2927 16.6057 61.3937 16.8247 61.6001 16.9426ZM78.0794 16.9805C78.1215 16.9974 78.172 16.9974 78.2141 17.0016C78.2605 17.01 78.2984 17.0226 78.3489 17.0226H82.4129C82.8172 17.0226 83.0194 16.812 83.0194 16.3909V16.2225C83.0194 15.8898 82.9056 15.6792 82.6782 15.5949C82.6024 15.5655 82.514 15.5528 82.4129 15.5528H79.5871C79.5871 15.5528 79.5871 15.5528 79.5786 15.5528C79.4944 15.5528 79.4523 15.5107 79.4523 15.4349V13.9062C79.4523 13.8177 79.4986 13.7714 79.5871 13.7714H81.1411C81.5454 13.7714 81.7475 13.5608 81.7475 13.1397V12.9712C81.7475 12.6512 81.6338 12.449 81.4064 12.369C81.3306 12.3437 81.2421 12.3269 81.1411 12.3269H79.5871C79.4986 12.3269 79.4523 12.2806 79.4523 12.1921V10.7855C79.4523 10.6971 79.4986 10.6508 79.5871 10.6508H82.2445C82.6487 10.6508 82.8509 10.4402 82.8509 10.019V9.83795C82.8509 9.39996 82.6487 9.18097 82.2445 9.18097H78.3489C78.1467 9.18097 77.9867 9.23993 77.8646 9.36206C77.7424 9.48419 77.6835 9.64422 77.6835 9.84637V16.3488C77.6835 16.5509 77.7424 16.711 77.8646 16.8331C77.9235 16.8921 77.9951 16.9384 78.0751 16.9679L78.0794 16.9805ZM49.7408 9.17254C49.6818 9.16412 49.6228 9.15991 49.5555 9.15991H49.3491C48.8227 9.15991 48.5616 9.4126 48.5616 9.91375V13.9314C48.5616 14.2052 48.5489 14.4368 48.5237 14.6347C48.5152 14.7021 48.5068 14.7611 48.4942 14.8158C48.4479 15.0433 48.3763 15.2201 48.2752 15.3507C48.1741 15.4812 48.0436 15.5655 47.8793 15.6118C47.7193 15.6581 47.5213 15.6792 47.2981 15.6792C47.0749 15.6792 46.8644 15.6581 46.7043 15.6118C46.6243 15.5907 46.5485 15.557 46.4853 15.5149C46.418 15.4728 46.3632 15.4181 46.3127 15.3591C46.2116 15.2328 46.1358 15.0559 46.0895 14.8327C46.0768 14.7779 46.0684 14.7148 46.0558 14.6516C46.0474 14.5884 46.0389 14.5168 46.0347 14.441C46.0221 14.2936 46.0179 14.1294 46.0179 13.9483V9.91797C46.0179 9.41681 45.7568 9.16412 45.2303 9.16412H45.024C44.5649 9.16412 44.3038 9.35785 44.2491 9.74109C44.2407 9.79583 44.2365 9.8548 44.2365 9.91797V14.142C44.2365 14.6137 44.2786 15.0222 44.367 15.3633C44.3965 15.477 44.4302 15.5823 44.4681 15.6834C44.6197 16.0793 44.8345 16.3867 45.1124 16.6057C45.3862 16.8247 45.7147 16.9721 46.0895 17.0479C46.4643 17.1237 46.8728 17.1616 47.3108 17.1616C47.7235 17.1616 48.1152 17.1153 48.4816 17.0268C48.8479 16.9384 49.1722 16.7784 49.4502 16.5467C49.7281 16.3151 49.9513 16.0035 50.1114 15.6118C50.2714 15.2201 50.3556 14.719 50.3556 14.1125V9.91375C50.3556 9.47577 50.1535 9.22729 49.7534 9.17254H49.7408ZM48.5447 29.2905H46.1821C46.0937 29.2905 46.0474 29.2399 46.0474 29.1431V26.8184C46.0474 26.7426 46.0726 26.692 46.1232 26.6583L47.2434 25.9466C47.3318 25.8961 47.3992 25.8455 47.4413 25.795C47.4834 25.7402 47.5045 25.6686 47.5045 25.5802C47.5045 25.5044 47.4919 25.4286 47.4624 25.3486C47.4329 25.2686 47.395 25.1885 47.3445 25.117C47.2939 25.0411 47.235 24.9822 47.1676 24.9317C47.096 24.8811 47.0202 24.8558 46.9402 24.8558C46.8981 24.8558 46.8559 24.8601 46.8096 24.8727C46.7633 24.8853 46.7086 24.9106 46.6454 24.9527L46.2284 25.2349C46.1863 25.2601 46.1526 25.2728 46.119 25.2728C46.0768 25.2728 46.0558 25.2433 46.0558 25.1885V23.6135C46.0558 23.1039 45.7905 22.8512 45.2556 22.8512H45.0577C44.5228 22.8512 44.2575 23.1039 44.2575 23.6135V26.3551C44.2575 26.4436 44.2322 26.5067 44.1817 26.5404L43.2847 27.1174C43.1962 27.1763 43.1288 27.2311 43.0825 27.2816C43.0362 27.3364 43.0151 27.408 43.0151 27.4964C43.0151 27.5638 43.032 27.6354 43.0657 27.7196C43.0994 27.7996 43.1415 27.8796 43.1878 27.9554C43.2383 28.0313 43.2931 28.0944 43.3605 28.145C43.4279 28.1955 43.491 28.225 43.5584 28.225C43.6258 28.225 43.6805 28.2166 43.7227 28.1955C43.769 28.1744 43.8195 28.145 43.8785 28.1028L44.0638 27.9807C44.1227 27.9554 44.1649 27.9428 44.1985 27.9428C44.2407 27.9428 44.2617 27.9765 44.2617 28.0397V30.1412C44.2617 30.3475 44.3207 30.5118 44.4386 30.6339C44.5565 30.756 44.725 30.8192 44.9355 30.8192H48.5531C48.9785 30.8192 49.1933 30.596 49.1933 30.1538V29.9685C49.1933 29.5179 48.9785 29.2905 48.5531 29.2905H48.5447ZM77.5782 26.5109C77.5529 26.4772 77.5403 26.4436 77.5403 26.4141C77.5403 26.3888 77.5571 26.3593 77.5908 26.3298L79.9534 23.6977C80.084 23.5587 80.1514 23.4198 80.1514 23.2808C80.1514 23.1586 80.1051 23.0534 80.0082 22.9733C79.9155 22.8933 79.785 22.8512 79.6207 22.8512H78.9216C78.7069 22.8512 78.5342 22.9018 78.3994 23.007C78.2647 23.1081 78.1257 23.2429 77.9867 23.4071L75.7841 25.9298C75.7336 25.9887 75.6999 26.014 75.6746 26.014C75.641 26.014 75.6241 25.9803 75.6241 25.9171V23.6177C75.6241 23.1081 75.3588 22.8554 74.8239 22.8554H74.626C74.0912 22.8554 73.8258 23.1081 73.8258 23.6177V30.0864C73.8258 30.596 74.0912 30.8487 74.626 30.8487H74.8239C75.3588 30.8487 75.6241 30.596 75.6241 30.0864V28.5872C75.6241 28.4987 75.6578 28.4145 75.721 28.3429L76.1379 27.9007C76.1884 27.8417 76.2221 27.8165 76.2474 27.8165C76.2727 27.8165 76.3064 27.8502 76.3443 27.9133L77.9572 30.3138C78.0709 30.4781 78.1973 30.6086 78.3405 30.7055C78.4794 30.8024 78.6563 30.8529 78.8711 30.8529H79.5955C79.8018 30.8529 79.9492 30.8066 80.0377 30.7181C80.1261 30.6297 80.1724 30.5244 80.1724 30.4107C80.1724 30.3138 80.1345 30.2043 80.0629 30.0906L77.5782 26.5236V26.5109ZM83.0446 22.847H82.8467C82.3118 22.847 82.0465 23.0997 82.0465 23.6093V30.078C82.0465 30.5876 82.3118 30.8403 82.8467 30.8403H83.0446C83.5795 30.8403 83.8448 30.5876 83.8448 30.078V23.6093C83.8448 23.0997 83.5795 22.847 83.0446 22.847ZM56.0452 23.5966C55.7462 23.285 55.3925 23.0618 54.9798 22.9312C54.5713 22.8007 54.1248 22.7333 53.6532 22.7333C53.211 22.7333 52.7898 22.8049 52.3855 22.9439C51.9854 23.0828 51.6275 23.3145 51.32 23.6345C51.0126 23.9546 50.7684 24.3757 50.5873 24.9022C50.4062 25.4286 50.3177 26.0729 50.3177 26.8436C50.3177 27.6143 50.402 28.3008 50.5704 28.8314C50.7389 29.3621 50.9705 29.779 51.2695 30.0906C51.5685 30.4023 51.9223 30.6255 52.3266 30.756C52.7309 30.8866 53.1731 30.954 53.649 30.954C54.0912 30.954 54.5123 30.8824 54.9166 30.7434C55.3167 30.6044 55.6746 30.3728 55.9821 30.0527C56.2895 29.7327 56.5338 29.3115 56.7191 28.7851C56.9044 28.2587 56.997 27.6143 56.997 26.8436C56.997 26.0729 56.9128 25.3865 56.7443 24.8558C56.5759 24.3252 56.3443 23.9083 56.0452 23.5966ZM55.0556 28.1829C54.9966 28.5282 54.9082 28.7935 54.786 28.983C54.6639 29.1725 54.5081 29.2989 54.3186 29.3705C54.1291 29.4421 53.9101 29.4758 53.6532 29.4758C53.3963 29.4758 53.1899 29.4421 53.0088 29.3705C52.8235 29.2989 52.6719 29.1725 52.5456 28.983C52.4234 28.7935 52.3308 28.5282 52.2676 28.1829C52.2044 27.8375 52.175 27.3911 52.175 26.8436C52.175 26.2962 52.2044 25.8455 52.2592 25.5044C52.3182 25.1591 52.4066 24.8938 52.5245 24.7042C52.6424 24.5147 52.794 24.3884 52.9793 24.3168C53.1646 24.2452 53.3878 24.2115 53.649 24.2115C53.8932 24.2115 54.1122 24.2452 54.3017 24.3168C54.4912 24.3884 54.6471 24.5147 54.7692 24.7042C54.8913 24.8938 54.984 25.1591 55.0471 25.5044C55.1103 25.8497 55.1398 26.2962 55.1398 26.8436C55.1398 27.3911 55.1103 27.8417 55.0556 28.1829ZM52.8109 21.9963C52.8656 22.0679 52.9288 22.1395 53.013 22.1732C53.1815 22.2363 53.3626 22.1353 53.5142 22.0384C54.1712 21.6229 54.7299 21.2677 55.1903 20.9729C55.2998 20.9013 55.4135 20.8087 55.443 20.6823C55.4641 20.5897 55.4346 20.497 55.4051 20.4086C55.3462 20.2486 55.2703 20.0885 55.1482 19.9664C55.0893 19.9074 55.0219 19.8569 54.9376 19.8401C54.845 19.8232 54.7608 19.819 54.6681 19.878C54.3438 20.0843 52.9541 21.0824 52.8235 21.1793C52.7224 21.2551 52.6214 21.3477 52.6045 21.4741C52.5961 21.5457 52.6172 21.6173 52.6424 21.6847C52.6803 21.7815 52.7267 21.8742 52.7856 21.9584C52.794 21.971 52.8067 21.9879 52.8151 22.0005L52.8109 21.9963ZM63.9627 23.6767C63.6342 23.3776 63.2594 23.1671 62.8298 23.0492C62.4045 22.9312 61.9623 22.8723 61.5032 22.8723H59.5365C59.3302 22.8723 59.1659 22.9354 59.0438 23.0576C58.9216 23.1797 58.8585 23.3439 58.8585 23.5503V30.1454C58.8585 30.3517 58.9216 30.516 59.0438 30.6381C59.1659 30.7602 59.3302 30.8234 59.5365 30.8234H61.5032C61.9623 30.8234 62.4045 30.7645 62.8298 30.6465C63.2552 30.5286 63.6342 30.3181 63.9627 30.019C64.2912 29.72 64.5523 29.3157 64.7502 28.8019C64.9482 28.2881 65.045 27.6396 65.045 26.8521C65.045 26.0645 64.9482 25.416 64.7502 24.9022C64.5523 24.3884 64.2912 23.9841 63.9627 23.6851V23.6767ZM63.0446 28.1618C62.952 28.4903 62.813 28.7388 62.6403 28.9114C62.4634 29.0841 62.2529 29.1978 62.0086 29.2484C61.7643 29.3031 61.4864 29.3284 61.1832 29.3284H60.7999C60.7031 29.3284 60.6525 29.282 60.6525 29.1936V24.481C60.6525 24.401 60.7031 24.3589 60.7999 24.3589H61.1832C61.4864 24.3589 61.7601 24.3842 62.0086 24.4389C62.2529 24.4937 62.4677 24.6032 62.6403 24.7758C62.8172 24.9485 62.952 25.197 63.0446 25.5255C63.1373 25.854 63.1878 26.2919 63.1878 26.8436C63.1878 27.3953 63.1415 27.8333 63.0446 28.1618ZM71.4001 29.3284H68.7174C68.6584 29.3284 68.6332 29.3115 68.6332 29.2778C68.6332 29.261 68.6332 29.2484 68.6374 29.2357C68.6374 29.2231 68.6542 29.1978 68.6795 29.1557L71.5348 24.6284C71.6317 24.4726 71.7117 24.3168 71.7665 24.1568C71.8254 23.9967 71.8507 23.8283 71.8507 23.6472V23.4745C71.8507 23.285 71.7959 23.1376 71.6907 23.0323C71.5854 22.927 71.438 22.8723 71.2485 22.8723H66.9781C66.5696 22.8723 66.3632 23.0828 66.3632 23.4998V23.6977C66.3632 24.1399 66.5696 24.3631 66.9781 24.3631H69.4249C69.4839 24.3631 69.5091 24.38 69.5091 24.4136C69.5091 24.4305 69.5091 24.4431 69.5049 24.4558C69.5049 24.4684 69.4881 24.4937 69.4628 24.5358L66.6201 29.1852C66.5317 29.3326 66.4601 29.48 66.4053 29.6232C66.3506 29.7664 66.3253 29.9138 66.3253 30.0612V30.2338C66.3253 30.4149 66.3758 30.5581 66.4811 30.6634C66.5822 30.7687 66.7212 30.8234 66.8939 30.8234H71.3958C71.8044 30.8234 72.0107 30.6128 72.0107 30.1959V29.998C72.0107 29.5558 71.8044 29.3326 71.3958 29.3326L71.4001 29.3284Z" fill="white"/>
<path d="M30.2127 26.9825C28.6039 26.0518 26.5403 26.6035 25.6096 28.2123C25.2727 28.7976 24.8768 29.3409 24.4388 29.8379C24.2956 29.9979 24.1482 30.1537 23.9966 30.3053C23.984 30.318 23.9714 30.3306 23.9587 30.339C23.8113 30.4822 23.6597 30.6254 23.5039 30.7602L23.4913 30.7686C22.1773 31.9141 20.5812 32.7058 18.8671 33.0596C18.8334 33.068 18.804 33.0722 18.7703 33.0764C18.6018 33.1101 18.4376 33.1354 18.2691 33.1607C18.2144 33.1691 18.1596 33.1775 18.1049 33.1817C17.9533 33.2028 17.7974 33.2154 17.6416 33.228C17.5827 33.2323 17.5279 33.2365 17.4689 33.2407C17.2626 33.2533 17.0562 33.2617 16.8457 33.2617C12.3184 33.2617 8.47336 30.2674 7.19309 26.1571C6.89829 25.2095 6.73826 24.1988 6.73826 23.1544V4.20299C6.73826 2.34155 5.23058 0.83386 3.36913 0.83386C1.50769 0.83386 0 2.34155 0 4.20299V23.1544C0 32.4447 7.55528 40 16.8457 40C17.191 40 17.5363 39.9874 17.8817 39.9663C17.9785 39.9621 18.0712 39.9495 18.168 39.9453C18.4249 39.9242 18.6818 39.8989 18.9387 39.8694C19.0314 39.8568 19.124 39.8442 19.2167 39.8315C19.4988 39.7936 19.7768 39.7431 20.0547 39.6926C20.1095 39.6841 20.1642 39.6715 20.219 39.6631C23.0659 39.0819 25.7191 37.7722 27.9175 35.8518C27.9259 35.8433 27.9385 35.8349 27.9469 35.8265C28.1996 35.6033 28.4439 35.3759 28.6881 35.14C28.7134 35.1148 28.7387 35.0895 28.764 35.0642C29.0082 34.82 29.244 34.5715 29.4715 34.3146C29.4799 34.3062 29.4883 34.2977 29.4967 34.2893C29.5178 34.2641 29.5389 34.243 29.5599 34.2177C29.6062 34.1672 29.6441 34.1124 29.682 34.0577C30.3348 33.2912 30.9244 32.47 31.4382 31.5856C32.3689 29.9768 31.8214 27.9132 30.2085 26.9825H30.2127ZM30.3306 0H16.9678C15.1737 0 13.6071 1.35186 13.4892 3.14593C13.3628 5.10844 14.9168 6.73826 16.8499 6.73826H20.0927C20.8676 6.73826 21.255 7.67741 20.7075 8.22489L17.9238 11.0086C16.6604 12.2721 16.4961 14.3314 17.6669 15.6833C18.3407 16.4624 19.2799 16.8499 20.2148 16.8499C21.0781 16.8499 21.9373 16.5214 22.5984 15.8644L25.4706 12.9922C26.0181 12.4447 26.9573 12.8322 26.9573 13.6071V17.5742C26.9573 19.3683 28.3133 20.9349 30.1032 21.0529C32.0657 21.1792 33.6955 19.6252 33.6955 17.6921V3.37334C33.6955 1.5119 32.1878 0.00421231 30.3264 0.00421231L30.3306 0Z" fill="white"/>
</svg>
