<svg width="148" height="56" viewBox="0 0 148 56" fill="none" xmlns="http://www.w3.org/2000/svg">
<g clip-path="url(#clip0_135_27525)">
<path d="M65.8826 8.56507L67.5783 8.68597C68.1424 8.72626 68.7066 8.78206 69.2739 8.83476C69.8381 8.88436 70.4054 8.90606 70.9696 8.89676C71.5368 8.88746 72.1041 8.86266 72.6714 8.81616C73.2387 8.76966 73.8091 8.70456 74.3795 8.58987V8.49687C73.8215 8.34187 73.2573 8.23958 72.6962 8.15278C72.132 8.06908 71.5678 8.00398 71.0037 7.95748C70.4395 7.91099 69.8722 7.89239 69.3049 7.90479C68.7376 7.91719 68.1703 7.93579 67.6031 7.93579L65.9043 7.94199L64.2055 7.96058C63.071 7.97918 61.9395 7.99468 60.8049 8.03188V8.12488C61.9302 8.23958 63.0617 8.33257 64.19 8.42867L65.8857 8.56507H65.8826Z" fill="#CE181E"/>
<path d="M64.5898 13.9992C66.2668 13.7698 70.957 10.3599 74.0414 10.4839C73.8926 9.87013 73.7035 9.24395 73.7035 9.24395C71.0531 10.0902 63.8334 8.69526 61.5767 8.88126C61.5767 8.88126 66.6822 11.4604 64.5867 13.9992H64.5898Z" fill="#CE181E"/>
<path d="M68.4026 13.4939L69.7263 13.0538C70.1665 12.905 70.6129 12.7748 71.0592 12.6353C71.5025 12.4958 71.9396 12.3315 72.3612 12.1393C72.7859 11.9471 73.2013 11.7394 73.6136 11.51C74.0228 11.2806 74.4258 11.0357 74.8132 10.7443L74.7792 10.6575C74.2987 10.6978 73.8337 10.7877 73.3749 10.8931C72.9192 10.9985 72.4666 11.1225 72.0233 11.2651C71.58 11.4046 71.146 11.5751 70.7245 11.7704C70.3029 11.9657 69.8813 12.1703 69.4566 12.3532L68.1794 12.9143L66.9054 13.4877C66.0591 13.8752 65.2128 14.2627 64.3696 14.6657L64.4037 14.7525C65.2965 14.489 66.1862 14.2069 67.0728 13.9279L68.4026 13.5001V13.4939Z" fill="#CE181E"/>
<path d="M61.3348 7.3933C64.2332 7.539 71.2173 6.69272 74.063 8.00089C73.7251 7.3313 74.2025 6.59352 74.2025 6.59352C70.4609 6.49433 66.1614 3.7137 60.4978 1.85685C62.9684 3.11852 63.2381 6.30523 61.3348 7.3933Z" fill="#CE181E"/>
<path d="M82.4455 7.69089C82.4486 7.5607 82.4734 7.4367 82.5199 7.3127C82.6253 7.02131 82.926 6.70512 83.3444 6.46953C83.4219 6.42613 83.5056 6.38583 83.5893 6.34553C82.9477 7.4181 83.2701 9.18195 84.2155 9.41755C84.634 9.51985 84.9285 9.58804 85.1517 9.64074C85.8926 10.208 85.5051 10.5986 85.4369 10.8807C85.3532 11.2279 87.1573 11.5348 87.1573 11.5348C87.1573 11.5348 86.8535 11.3767 86.4444 11.0016C85.967 10.5676 86.1344 9.89184 86.339 9.42995L86.6273 9.56634C87.0551 9.76784 87.458 9.99103 87.7184 10.3351C87.7835 10.4188 87.8362 10.5118 87.8765 10.611C87.8982 10.6606 87.9137 10.7102 87.9292 10.7629L87.9664 10.9303C88.0098 11.1907 88.1152 11.4418 88.2547 11.6588C88.5368 12.0959 88.9739 12.3997 89.4389 12.5485C88.9987 12.3315 88.6329 11.975 88.4438 11.5534C88.3508 11.3426 88.295 11.1163 88.2888 10.89L88.2733 10.6947C88.264 10.6265 88.2516 10.5583 88.2361 10.4901C88.1989 10.3568 88.1493 10.2235 88.0842 10.1026C87.954 9.85464 87.7649 9.65004 87.5696 9.47025C87.3712 9.29355 87.1573 9.13856 86.9496 8.99906L86.7141 8.84096C87.4301 8.47827 89.6094 11.5255 89.6094 11.5255C89.6094 11.5255 90.5766 9.69344 89.876 9.91043C87.3991 9.00216 87.8145 6.55632 87.8145 6.55632C87.8145 6.55632 86.6893 5.84334 86.1685 5.48375C84.9502 4.63748 84.51 2.39314 83.921 1.40736C83.8342 1.46936 83.9644 3.02862 84.0543 4.00819C84.0109 3.97099 83.9675 3.93379 83.9241 3.8966C83.3103 3.39131 82.6408 2.95422 81.9216 2.62873C81.562 2.46753 81.1931 2.32804 80.8149 2.22574C80.4367 2.12654 80.0554 2.04594 79.6679 2.00875C78.8961 1.92505 78.1242 1.98395 77.3864 2.14204C78.1397 2.09244 78.8961 2.14824 79.609 2.33114C79.9686 2.41794 80.3127 2.54503 80.6475 2.68763C80.9823 2.83332 81.3016 3.01002 81.6054 3.20531C82.089 3.51531 82.5323 3.8811 82.9353 4.28718C82.8764 4.30268 82.8175 4.32128 82.7617 4.33988C82.368 4.20969 81.9805 4.12289 81.5961 4.06399C81.1342 3.99269 80.6754 3.96479 80.2135 3.97719C79.7547 3.99579 79.2898 4.05469 78.8496 4.22209C78.6295 4.30578 78.4187 4.42358 78.2482 4.58788C78.0777 4.74907 77.9692 4.96607 77.9382 5.17376C78.0498 4.99087 78.2079 4.85757 78.3846 4.78937C78.5644 4.72117 78.7535 4.69637 78.9426 4.70257C79.3239 4.71497 79.7051 4.81417 80.0709 4.94747C80.384 5.06526 80.6847 5.20786 80.973 5.37216C80.8831 5.45895 80.7963 5.54885 80.7126 5.64495C80.4305 5.63255 80.1515 5.63565 79.8725 5.66355C79.4355 5.71005 78.9953 5.80924 78.5985 6.02314C78.4032 6.13164 78.2203 6.27113 78.087 6.44163C77.9506 6.61522 77.87 6.81672 77.8452 7.01201C77.9475 6.84152 78.0901 6.70822 78.2482 6.62452C78.4063 6.54083 78.5799 6.50053 78.7535 6.48813C79.1007 6.46023 79.454 6.53153 79.7919 6.64002C79.8849 6.67102 79.9748 6.70512 80.0678 6.74232C79.981 6.97481 79.919 7.21351 79.8818 7.4553C79.8694 7.4553 79.857 7.4553 79.8446 7.4615C79.42 7.539 78.9953 7.68469 78.6388 7.93579C78.4621 8.05978 78.304 8.21478 78.1924 8.39148C78.0777 8.56817 78.0095 8.76347 77.9878 8.95256C78.0901 8.78826 78.2203 8.65497 78.3691 8.56197C78.5148 8.46587 78.6791 8.41007 78.8434 8.38218C79.1751 8.32328 79.513 8.36048 79.8353 8.44417C79.8384 8.44417 79.8415 8.44417 79.8477 8.44727C79.8601 8.59917 79.8787 8.74797 79.9035 8.89366C79.9283 9.02696 79.9562 9.15406 79.9872 9.28115C79.7702 9.33695 79.5594 9.42065 79.3673 9.54154C79.1875 9.65314 79.0294 9.80194 78.924 9.97553C78.8155 10.146 78.7597 10.332 78.738 10.5149C78.8341 10.3599 78.9612 10.2328 79.1007 10.146C79.2402 10.0592 79.3921 10.0158 79.5439 10.0003C79.7764 9.97863 80.012 10.0158 80.2414 10.0871C80.2414 10.0933 80.2445 10.0995 80.2476 10.1057C80.3313 10.3165 80.4274 10.5211 80.5297 10.7195C80.4367 10.7598 80.3468 10.8063 80.26 10.859C80.0802 10.9706 79.9221 11.1194 79.8167 11.293C79.7082 11.4635 79.6524 11.6495 79.6307 11.8324C79.7268 11.6774 79.8539 11.5503 79.9934 11.4635C80.1329 11.3767 80.2848 11.3333 80.4367 11.3178C80.5855 11.3023 80.7343 11.3147 80.88 11.3426C81.0443 11.5999 81.2148 11.8448 81.3915 12.0773C81.3605 12.0959 81.3295 12.1114 81.2985 12.13C81.1187 12.2416 80.9637 12.3904 80.8552 12.564C80.7467 12.7345 80.6909 12.9205 80.6692 13.1033C80.7653 12.9484 80.8924 12.8213 81.0319 12.7345C81.1714 12.6477 81.3233 12.6043 81.4752 12.5888C81.5837 12.5795 81.6922 12.5826 81.8007 12.595C81.9061 12.7221 82.0115 12.8461 82.1169 12.9639C82.1634 13.0166 82.2099 13.0693 82.2533 13.1188C82.0766 13.2304 81.9247 13.3761 81.8193 13.5466C81.7263 13.6954 81.6705 13.8566 81.6457 14.0178C81.2334 13.9713 80.8242 13.9775 80.415 14.0333C80.415 14.0333 80.4119 14.0333 80.4088 14.0333C79.5347 13.9558 78.6264 13.9961 78.6264 13.9961C78.4683 15.9584 77.1849 18.5034 77.1601 19.9449C77.653 19.2691 79.1255 17.1425 80.3654 15.7724C80.4832 15.7197 80.6103 15.6701 80.7436 15.6298C81.1497 15.5027 81.5961 15.4469 81.996 15.4841C82.1975 15.5027 82.3835 15.5492 82.5416 15.6174C82.6997 15.6856 82.8206 15.7786 82.9136 15.9026C83.0035 16.0235 83.0654 16.1878 83.084 16.3862C83.1057 16.5815 83.0841 16.8047 83.0407 17.0309C82.9446 17.4866 82.7555 17.9206 82.4579 18.2771C82.1603 18.6336 81.7573 18.9126 81.2985 19.0986C80.8397 19.2846 80.3344 19.3838 79.8229 19.421C79.3115 19.4551 78.7876 19.4365 78.273 19.3528C78.7721 19.5078 79.296 19.6008 79.826 19.638C80.1763 19.6597 80.5328 19.6566 80.8893 19.6132C80.6289 19.824 80.3561 20.041 80.0833 20.2766C79.4447 20.819 78.7783 21.4421 78.1614 22.2047C77.5507 22.9673 76.9989 23.8942 76.6858 24.9233C76.5277 25.4348 76.4254 25.9587 76.382 26.4764C76.3696 26.5942 76.3603 26.7647 76.3541 26.9228C76.351 27.0809 76.3603 27.239 76.3665 27.394C76.3944 27.7009 76.4378 28.0016 76.5091 28.2805C76.6455 28.8416 76.8501 29.3314 77.0733 29.7623C77.2965 30.1963 77.5414 30.5776 77.7894 30.931C78.2885 31.6347 78.7969 32.2391 79.2898 32.8188C79.7671 33.3768 80.2197 33.91 80.6413 34.4463C80.6723 34.4959 80.7033 34.5455 80.7312 34.5982L80.7498 34.5889C81.5868 35.6707 82.275 36.7774 82.5602 38.0019C82.6997 38.6281 82.7617 39.2821 82.6842 39.9548C82.6501 40.2896 82.5912 40.6275 82.4982 40.9654C82.4579 41.1359 82.4021 41.3002 82.3525 41.4707C82.2936 41.6381 82.2409 41.8086 82.1727 41.9729C81.9092 42.6425 81.3171 43.7243 81.2644 43.7863C81.2117 43.8514 80.9048 40.8631 80.9048 40.8631C80.9048 40.8631 79.6741 45.4231 77.2686 47.655C82.0735 46.2756 84.2744 43.9568 85.9887 40.8631C84.5069 42.4131 83.2236 43.1632 82.275 43.622C82.5881 43.2686 82.8826 42.8936 83.1554 42.4968C83.2731 42.3356 83.3723 42.1589 83.4839 41.9884C83.5831 41.8117 83.6916 41.6381 83.7784 41.4521C83.9644 41.0863 84.1256 40.7019 84.2558 40.302C84.5224 39.5022 84.6557 38.6312 84.6278 37.757C84.603 36.8828 84.4232 36.021 84.1597 35.2089C83.8993 34.3967 83.5459 33.6372 83.1678 32.9211C82.7927 32.2019 82.3866 31.5262 82.0022 30.8783C81.3698 29.8057 80.4088 28.5409 80.5793 27.2235C80.6816 26.4423 81.1342 25.8409 81.6891 25.3139C82.0735 24.945 82.5571 24.5823 83.1151 24.2042C83.394 24.0151 83.6854 23.8229 83.9954 23.6214C84.3054 23.4168 84.6309 23.206 84.9688 22.9735C85.3067 22.741 85.6601 22.4868 86.0228 22.1954C86.3855 21.8978 86.7637 21.5692 87.1356 21.1538C87.3216 20.9492 87.5045 20.7198 87.6812 20.4719C87.8579 20.2208 88.0253 19.9449 88.1741 19.6504C88.2361 19.5264 88.295 19.3962 88.3508 19.2629C89.4544 19.7775 88.6205 22.6015 88.667 23.2556C89.3583 22.1055 89.6373 19.5636 90.4092 17.809L90.7408 17.4928C90.6665 17.4153 89.1537 18.3205 88.6174 18.0818C88.4624 18.0136 88.8158 17.3006 88.7538 16.5567C88.7321 16.3273 88.7135 15.9336 88.6732 15.7197C88.5554 15.1338 88.3787 14.613 88.1741 14.1449C88.1741 14.1418 88.1741 14.1356 88.1741 14.1325C87.3123 12.4028 84.9192 11.0078 84.4697 10.6048C84.014 10.2049 83.5614 9.93213 83.2421 9.53535C83.0872 9.33695 82.9477 9.13546 82.8268 8.92776C82.709 8.71697 82.616 8.50617 82.5478 8.30778C82.4796 8.10938 82.4455 7.92649 82.4424 7.76839C82.4424 7.76839 82.4424 7.76219 82.4424 7.75909M86.7358 6.80742L87.0705 7.4336C86.5591 7.3065 86.0941 6.96241 85.6942 6.35483L86.7358 6.80742ZM83.1925 14.5448C82.9012 14.3464 82.5881 14.2193 82.2781 14.1356C82.0797 14.0829 81.8844 14.0457 81.686 14.024C81.7759 13.8969 81.8844 13.7915 82.0022 13.7202C82.1417 13.6334 82.2936 13.59 82.4455 13.5745C82.5168 13.5683 82.585 13.5683 82.6563 13.5714C82.9105 13.8566 83.1429 14.1232 83.3351 14.3774C83.4963 14.5882 83.6203 14.7835 83.6978 14.9447C83.7288 15.0129 83.7505 15.0718 83.766 15.1245C83.611 14.892 83.4064 14.6967 83.1894 14.551L83.1925 14.5448Z" fill="#CE181E"/>
<path d="M78.0899 14.3185C78.1054 13.962 78.1085 13.6055 78.0589 13.2335L77.969 13.2118C77.7551 13.5187 77.5939 13.8411 77.4451 14.1635C77.2995 14.489 77.1724 14.8176 77.0639 15.1493C76.9554 15.481 76.8748 15.822 76.8221 16.1692C76.7694 16.5164 76.726 16.8635 76.6609 17.2076L76.4749 18.2399L76.3044 19.2784C76.1959 19.9697 76.0874 20.664 75.9944 21.3584L76.0843 21.3801C76.3199 20.7167 76.54 20.0534 76.7601 19.3869L77.0825 18.3856L77.3893 17.3812C77.4916 17.0464 77.6094 16.7147 77.7241 16.3831C77.8357 16.0514 77.9194 15.7104 77.9752 15.3663C78.031 15.0191 78.0682 14.6688 78.0868 14.3154L78.0899 14.3185Z" fill="#CE181E"/>
<path d="M77.2776 13.4009L76.3166 13.125C75.5912 15.1648 73.0462 16.5257 71.8713 18.0198C74.4598 18.5189 75.523 18.8568 75.7958 19.3962C76.4189 17.9702 75.926 15.4903 77.2776 13.4009Z" fill="#CE181E"/>
<path d="M75.3032 12.4028C74.8134 11.7735 74.5933 11.4046 74.5933 11.4046C72.659 13.2428 67.7115 14.1635 65.647 15.0656C65.647 15.0656 71.0811 14.8579 70.7804 17.7067C72.1165 16.0886 74.1655 12.8864 75.3032 12.4059V12.4028Z" fill="#CE181E"/>
<path d="M72.9069 16.535L73.685 15.7693C73.9454 15.512 74.2151 15.2702 74.4847 15.0222C74.7513 14.7742 74.9962 14.5045 75.2194 14.2162C75.4426 13.9279 75.6534 13.6272 75.8487 13.3141C76.044 12.9979 76.2238 12.6756 76.3695 12.3129L76.3013 12.2509C75.9572 12.4307 75.6503 12.6446 75.3589 12.8678C75.0675 13.094 74.7885 13.3327 74.525 13.5838C74.2616 13.8349 74.0167 14.1046 73.7966 14.396C73.5765 14.6874 73.3595 14.9819 73.1301 15.264L72.445 16.1165L71.7692 16.9782C71.3228 17.5548 70.8764 18.1314 70.4456 18.7204L70.5138 18.7824C71.0562 18.2926 71.5863 17.7935 72.1164 17.2913L72.9069 16.535Z" fill="#CE181E"/>
<path d="M46.7964 25.1279C46.5112 25.1279 45.0759 23.2494 44.7473 22.8805C43.9289 23.6555 43.3151 24.5389 42.8223 25.4968V33.4202C42.8223 34.2324 43.5197 35.742 44.583 35.742C45.5254 35.742 46.7933 34.6354 47.4504 34.158C47.6953 34.158 47.8193 34.3068 47.8193 34.5269C47.8193 34.8586 43.6003 38.3615 42.9463 38.3615C42.8223 38.1042 42.6177 37.881 42.4131 37.6609C41.7156 37.4408 39.0125 36.1853 39.0125 35.5963C39.5859 35.1903 40.3237 34.7842 40.3237 34.0123L40.2834 23.6183C40.2834 23.2494 40.0385 22.8061 39.5859 22.8061C39.0931 22.8061 38.6436 23.3951 38.3987 23.3951C38.3181 23.3951 38.0298 23.2463 38.0298 23.2122C38.0298 22.5488 40.8135 19.7093 41.4707 19.7093C41.7156 20.0782 42.8626 22.1055 42.8626 22.4372V23.6896C43.6406 23.3951 45.73 19.4892 46.3841 19.4892C46.7127 19.4892 46.9172 19.8209 47.0381 20.041C47.1621 20.2611 47.2427 20.5927 47.407 20.7787C47.6116 21.036 48.554 22.0683 48.554 22.4C48.554 23.0262 47.531 25.1279 46.7933 25.1279H46.7964Z" fill="white"/>
<path d="M55.3552 23.175V34.0836C55.3552 34.7842 55.5598 35.4476 56.4619 35.4476C56.9951 35.4476 58.0583 34.6726 58.4675 34.3781C58.7124 34.3781 58.8364 34.5269 58.8364 34.747C58.8364 34.9671 58.3032 35.336 58.1389 35.4848C57.1966 36.1853 56.4185 37.0316 55.6807 37.881C55.4761 38.1011 55.1475 38.47 54.7786 38.47C54.2051 38.47 53.4271 37.5121 52.9776 37.2548C52.5684 37.0347 52.1592 36.8487 51.7903 36.5914C51.626 36.4798 51.5454 36.2969 51.5454 36.1109C51.874 35.8536 52.8567 35.1903 52.8567 34.7842V23.175C52.4475 23.0634 50.7673 23.3238 50.7673 22.7689C52.8567 21.2933 54.1679 19.266 55.0669 17.0557C55.2312 16.6869 55.6807 15.5089 56.2542 15.5089C56.3782 15.5089 56.4588 15.5833 56.4588 15.6918C56.4588 15.8003 56.0899 16.5753 56.0093 16.7984C55.5164 18.1996 55.4358 19.7093 55.4358 21.1848C56.6634 21.1848 59.4502 20.7043 59.4502 22.5116C59.4502 22.7317 59.4099 22.9549 59.3696 23.175H55.3552Z" fill="white"/>
<path d="M69.2768 28.9253C68.0493 29.846 66.8186 30.8039 65.6716 31.799C65.9165 33.7147 66.8186 35.1531 69.1528 35.1531C71.1182 35.1531 72.2249 33.6062 72.7147 33.6062C72.9595 33.6062 73.0835 33.7178 73.0835 33.9379C73.0835 34.3812 70.6687 36.0768 70.2998 36.3341C69.686 36.7774 69.1528 37.3292 68.5794 37.8438C68.3345 38.0639 68.0462 38.3243 67.6773 38.3243C67.513 38.3243 67.2278 37.7353 66.8992 37.6237C64.6053 36.8487 63.7466 35.928 63.0894 33.7178C62.4756 31.6161 62.5562 29.2229 62.5562 27.084C62.5562 26.1633 62.5965 24.7249 63.0894 23.9159C63.418 23.4013 68.7406 19.3094 69.3946 19.3094C69.6395 19.3094 69.8038 19.3838 69.9681 19.5667C70.6222 20.413 71.1151 21.4452 71.7692 22.3318C72.1784 22.8836 73.6105 24.7652 73.6105 25.4658C73.6105 25.6487 69.5961 28.6711 69.2706 28.9315L69.2768 28.9253ZM67.6804 21.7366C67.0666 22.1055 65.4701 23.2835 65.4701 24.0213C65.4701 24.9791 65.4298 29.5143 65.6747 30.3234C66.4125 29.9545 70.5075 26.9693 70.5075 26.6004C70.5075 25.8626 68.0927 21.7707 67.6804 21.7366Z" fill="white"/>
<path d="M100.043 38.6901C99.8389 38.6901 99.4297 38.2096 99.346 38.1011C98.4036 37.0688 97.8301 35.8164 97.6255 34.4897C96.6025 35.2647 92.3433 38.5816 91.4412 38.5816C91.4143 38.5816 91.3875 38.5692 91.3606 38.5444C89.4355 37.0347 87.3462 32.3879 87.3462 30.0289C87.3462 25.2364 90.8274 22.2512 94.7984 19.5977C95.7811 19.8922 101.228 22.5085 101.268 22.9518C100.899 23.4323 100.04 23.6524 100.04 24.353C100.04 27.5211 100.121 30.6551 100.164 33.8263C100.164 34.5641 100.698 35.5964 101.64 35.5964C102.049 35.5964 102.747 34.9702 103.196 34.9702C103.32 34.9702 103.36 35.1903 103.36 35.2647C103.36 35.3019 103.28 35.522 103.28 35.5592C102.582 36.0737 100.536 38.6932 100.043 38.6932V38.6901ZM97.5046 24.353C97.5046 23.9841 94.0234 22.2512 93.3693 21.9195C90.9545 23.4664 89.9284 25.7169 89.9284 28.3332C89.9284 29.9173 91.6489 35.5933 93.6948 35.5933C94.5535 35.5933 97.0117 33.7147 97.5046 33.0513V24.353Z" fill="white"/>
<path d="M113.637 35.8536C113.147 33.3458 113.147 30.8039 110.853 29.1082C110.239 29.2911 108.888 29.9545 108.438 30.3978V34.1208C108.438 34.7842 108.643 35.4475 109.501 35.4475C109.787 35.4475 111.302 34.5269 111.55 34.3781C111.795 34.3781 111.919 34.5269 111.919 34.747C111.919 34.9671 111.386 35.336 111.222 35.4847C110.199 36.2597 109.501 36.9603 108.723 37.9182C108.519 38.1383 108.23 38.5072 107.865 38.5072C107.536 38.5072 107.251 38.2499 107.046 38.0639C106.188 37.3261 105.695 37.1804 104.876 36.5883C104.712 36.4767 104.631 36.2938 104.631 36.1078C105.245 35.8133 105.943 35.556 105.943 34.8183V17.1642C105.943 15.8747 105.862 13.4784 104.96 12.409H105.084C106.107 12.409 106.721 13.7357 106.845 14.5107C107.542 12.3718 109.055 11.2682 111.553 11.2682C111.758 11.2682 112.003 11.2682 112.208 11.3054C109.588 12.3377 108.398 14.179 108.398 16.7241V22.5829L114.663 18.8227C114.991 18.8227 115.236 18.9343 115.236 19.266C115.236 19.5233 115.072 19.8922 115.032 20.1495C115.974 21.3646 116.547 22.028 116.547 23.4664C116.547 25.162 114.951 26.526 113.516 27.4467C115.85 30.2831 115.645 31.1697 116.259 34.4494C116.34 34.8927 116.504 35.556 117.118 35.556C117.322 35.556 117.772 34.8183 118.06 34.8183C118.184 34.8183 118.389 34.9299 118.389 35.0756C118.389 35.556 115.931 38.3181 115.562 38.3181C115.112 38.3181 113.717 36.3279 113.637 35.8474V35.8536ZM112.04 21.5878C111.671 21.5878 108.968 23.4664 108.438 23.8353V29.2911C110.158 28.4789 113.804 27.0809 113.804 25.0535C113.804 24.3157 112.902 21.5878 112.043 21.5878H112.04Z" fill="white"/>
<path d="M124.53 23.175V34.0836C124.53 34.7842 124.734 35.4476 125.636 35.4476C126.17 35.4476 127.233 34.6726 127.642 34.3781C127.887 34.3781 128.011 34.5269 128.011 34.747C128.011 34.9671 127.478 35.336 127.313 35.4848C126.371 36.1853 125.593 37.0316 124.855 37.881C124.651 38.1011 124.322 38.47 123.953 38.47C123.38 38.47 122.602 37.5121 122.152 37.2548C121.743 37.0347 121.334 36.8487 120.965 36.5914C120.801 36.4798 120.72 36.2969 120.72 36.1109C121.049 35.8536 122.031 35.1903 122.031 34.7842V23.175C121.622 23.0634 119.942 23.3238 119.942 22.7689C122.031 21.2933 123.339 19.266 124.241 17.0557C124.406 16.6869 124.855 15.5089 125.429 15.5089C125.553 15.5089 125.633 15.5833 125.633 15.6918C125.633 15.8003 125.264 16.5753 125.184 16.7984C124.694 18.1996 124.61 19.7093 124.61 21.1848C125.838 21.1848 128.625 20.7043 128.625 22.5116C128.625 22.7317 128.584 22.9549 128.544 23.175H124.53Z" fill="white"/>
<path d="M143.808 49.2515C146.635 45.5657 147.42 44.3598 147.537 40.2896C147.606 37.8934 146.589 35.6583 145.197 33.5969C144.998 33.321 144.558 32.6576 144.062 32.0965V23.8043C144.062 22.7348 145.333 22.2946 145.333 21.8885C145.333 21.4824 144.351 20.9678 144.022 20.7818C143.982 20.7446 143.449 20.2301 143.408 20.1557C143.284 20.0441 142.999 19.7124 142.794 19.7124C142.305 19.7124 141.771 20.5245 141.443 20.7818C141.158 21.0019 140.132 21.4452 140.132 21.8885C140.132 22.4775 141.359 22.7007 141.359 23.8043V31.9508C140.826 33.0203 138.042 35.711 136.731 35.711C135.175 35.711 135.379 32.0252 135.379 31.1418V22.4062C135.379 21.9257 134.806 21.191 134.561 20.7849C134.437 20.5648 134.276 19.6411 133.988 19.6411C133.454 19.6411 130.426 23.1068 130.426 23.6958C130.426 23.8446 130.63 23.8787 130.754 23.8787C131.164 23.8043 131.492 23.3269 131.901 23.3269C132.435 23.3269 132.679 23.733 132.679 24.139L132.72 34.0154C132.72 34.9733 131.613 35.6366 131.613 36.0427C132.146 36.5232 132.924 36.7805 133.578 37.1122C133.988 37.3323 134.316 37.7012 134.685 37.9585C134.93 38.1414 135.259 38.3646 135.627 38.3646C135.866 38.3646 137.029 37.4284 138.262 36.3961C139.468 35.5684 140.981 34.6571 141.337 34.6137C143.752 36.5666 144.912 39.2759 144.912 42.224C144.912 46.2229 142.9 48.709 141.623 50.073C141.762 49.0531 142.057 47.7697 143.005 45.9594C140.621 48.5726 139.453 50.8324 139.682 55.8264C141.028 52.835 144.955 50.2094 144.955 50.2094C144.955 50.2094 142.658 50.8076 142.193 50.8882C142.903 50.2682 143.628 49.5057 143.811 49.2546L143.808 49.2515ZM142.103 50.8882C142.131 50.8417 142.112 50.9006 142.227 50.8107C142.212 50.8355 142.193 50.8603 142.174 50.8851C142.131 50.8913 142.1 50.8944 142.106 50.8851L142.103 50.8882Z" fill="white"/>
<path d="M35.5779 34.6323L35.1873 34.2665L33.2684 35.3081L21.4392 10.1181L22.0777 8.80376L21.154 8.41317L20.6208 9.55084C20.193 9.19435 19.8024 8.94636 19.3777 8.76966C18.7732 8.52167 18.0633 8.41317 17.2822 8.41317C14.8301 8.41317 12.8059 9.37105 11.1722 11.3612C10.2485 12.4617 9.89196 13.5652 9.89196 13.8473C9.89196 14.0953 10.0346 14.2751 10.2825 14.2751C10.8157 14.2751 10.9924 13.3854 11.7736 12.7841C12.84 11.9316 13.8692 11.5038 15.1494 11.5038C16.6777 11.5038 17.9207 12.1083 18.8786 13.3172L16.9257 17.5796C15.9306 16.5846 14.8301 16.0514 13.5499 16.0514C11.0637 16.0514 9.14488 18.7514 9.14488 20.7756C9.14488 20.9523 9.32158 21.1662 9.53547 21.1662C10.0315 21.1662 10.1028 20.6702 10.5305 20.1371C11.135 19.3559 11.9162 18.9653 12.9826 18.9653C14.049 18.9653 14.9014 19.4272 15.6113 20.3851L9.43007 33.6372C3.88742 34.4556 0.691406 37.6888 0.691406 41.7032C0.691406 45.7176 4.17261 48.6656 9.71527 48.6656C11.5225 48.6656 13.2244 48.4517 14.8208 47.9216C15.3323 47.8069 15.664 47.6643 15.7384 47.6488C15.0254 48.4238 14.0335 49.3414 12.1239 50.3117C15.5803 49.5646 17.8432 48.399 20.5495 44.1986C17.7192 45.8571 12.9981 45.7176 12.9981 45.7176C12.9981 45.7176 15.7942 46.7777 15.7167 46.8118C15.6671 46.8335 15.168 47.0102 14.6193 47.1807V47.1745C13.0539 47.6364 11.4915 47.8844 9.82066 47.8844C4.8453 47.8844 1.72058 45.3611 1.72058 42.0938C1.72058 38.8265 4.4919 36.0179 8.64889 36.0179C10.9242 36.0179 13.0539 36.7278 14.7588 38.0081L20.4069 33.9937L19.8737 33.5659L17.3163 35.1996C15.3974 34.0991 13.1965 33.5659 10.5305 33.5659L13.088 28.0604H25.8069L29.2013 35.2864C28.8852 35.6118 28.4016 35.9466 28.1908 36.114C28.1908 36.2969 28.2714 36.4829 28.4357 36.5945C28.8046 36.8518 29.2137 37.0378 29.6229 37.2579C30.0724 37.5152 30.8505 38.4731 31.424 38.4731C31.7929 38.4731 32.1215 38.1042 32.3261 37.8841C33.0638 37.0378 33.8419 36.1884 34.7843 35.4878C34.9486 35.3391 35.4818 34.9733 35.4818 34.7501C35.4818 34.7377 35.4756 34.7253 35.4756 34.7129L35.5779 34.6354V34.6323ZM14.2628 25.4658L19.3777 14.5231L24.5639 25.4658H14.2597H14.2628Z" fill="white"/>
</g>
<defs>
<clipPath id="clip0_135_27525">
<rect width="147.996" height="56" fill="white"/>
</clipPath>
</defs>
</svg>
