<svg width="319" height="487" viewBox="0 0 319 487" fill="none" xmlns="http://www.w3.org/2000/svg">
<path d="M56.7011 75.3726L74.5568 76.6456C80.4978 77.07 86.4388 77.6576 92.4125 78.2125C98.3535 78.7348 104.327 78.9633 110.268 78.8654C116.242 78.7674 122.215 78.5063 128.189 78.0167C134.163 77.527 140.169 76.8415 146.175 75.6337V74.6544C140.3 73.0223 134.359 71.9451 128.45 71.0311C122.509 70.1497 116.568 69.4642 110.627 68.9746C104.686 68.4849 98.7126 68.2891 92.7389 68.4196C86.7652 68.5502 80.7916 68.7461 74.8179 68.7461L56.9296 68.8113L39.0412 69.0072C27.0939 69.2031 15.1792 69.3663 3.23193 69.758V70.7373C15.0813 71.9451 26.996 72.9244 38.8781 73.9363L56.7337 75.3726H56.7011Z" fill="#CE181E"/>
<path d="M43.0888 132.596C60.7486 130.18 110.137 94.2728 142.617 95.5785C141.05 89.1152 139.059 82.5213 139.059 82.5213C111.149 91.4328 35.1239 76.7435 11.3599 78.7021C11.3599 78.7021 65.1228 105.861 43.0562 132.596H43.0888Z" fill="#CE181E"/>
<path d="M83.24 127.275L97.1785 122.64C101.814 121.073 106.514 119.702 111.215 118.233C115.883 116.764 120.486 115.034 124.925 113.01C129.397 110.986 133.771 108.799 138.113 106.383C142.422 103.968 146.665 101.389 150.746 98.3206L150.386 97.4066C145.327 97.831 140.43 98.7776 135.599 99.8875C130.801 100.997 126.035 102.303 121.367 103.805C116.699 105.274 112.129 107.069 107.69 109.125C103.25 111.182 98.8106 113.336 94.3386 115.262L80.8897 121.171L67.4734 127.21C58.5619 131.29 49.6504 135.37 40.7715 139.614L41.1306 140.528C50.5317 137.753 59.9003 134.783 69.2361 131.845L83.24 127.34V127.275Z" fill="#CE181E"/>
<path d="M8.81359 63.0336C39.3347 64.5678 112.879 55.6563 142.846 69.4316C139.287 62.3808 144.314 54.6117 144.314 54.6117C104.914 53.5672 59.6387 24.2864 0 4.73332C26.0164 18.019 28.8564 51.5759 8.81359 63.0336Z" fill="#CE181E"/>
<path d="M231.112 66.1672C231.145 64.7962 231.406 63.4905 231.896 62.1848C233.006 59.1164 236.172 55.7868 240.579 53.3059C241.395 52.8489 242.276 52.4246 243.157 52.0002C236.4 63.2947 239.795 81.8685 249.751 84.3494C254.158 85.4266 257.259 86.1447 259.61 86.6997C267.411 92.6733 263.331 96.7863 262.613 99.7568C261.731 103.413 280.73 106.644 280.73 106.644C280.73 106.644 277.53 104.98 273.222 101.03C268.195 96.4599 269.957 89.3437 272.112 84.4799L275.148 85.9162C279.652 88.038 283.896 90.3883 286.638 94.0117C287.323 94.893 287.878 95.8723 288.303 96.9169C288.531 97.4392 288.694 97.9615 288.858 98.5164L289.249 100.279C289.706 103.021 290.816 105.665 292.285 107.95C295.256 112.553 299.858 115.752 304.755 117.319C300.119 115.034 296.268 111.28 294.276 106.84C293.297 104.621 292.709 102.238 292.644 99.8548L292.481 97.7982C292.383 97.0801 292.253 96.362 292.089 95.6438C291.698 94.2402 291.175 92.8365 290.49 91.5634C289.119 88.952 287.128 86.7976 285.071 84.9043C282.982 83.0436 280.729 81.4115 278.542 79.9426L276.062 78.2778C283.602 74.4585 306.55 106.547 306.55 106.547C306.55 106.547 316.735 87.2546 309.357 89.5396C283.276 79.9752 287.65 54.2199 287.65 54.2199C287.65 54.2199 275.8 46.712 270.316 42.9255C257.488 34.0139 252.852 10.3805 246.65 0C245.736 0.652859 247.107 17.0723 248.054 27.3874C247.597 26.9957 247.14 26.604 246.683 26.2123C240.22 20.8915 233.169 16.2888 225.596 12.8613C221.809 11.1639 217.925 9.69495 213.942 8.61774C209.96 7.57316 205.945 6.72445 201.864 6.33273C193.736 5.45137 185.608 6.07159 177.839 7.73638C185.771 7.21409 193.736 7.80166 201.244 9.7276C205.031 10.6416 208.654 11.98 212.179 13.4815C215.705 15.0158 219.067 16.8764 222.266 18.9329C227.358 22.1972 232.026 26.0491 236.27 30.3253C235.65 30.4885 235.029 30.6844 234.442 30.8802C230.296 29.5092 226.216 28.5952 222.168 27.975C217.304 27.2242 212.473 26.9304 207.609 27.061C202.778 27.2569 197.882 27.8771 193.246 29.6398C190.929 30.5211 188.709 31.7616 186.914 33.4917C185.118 35.1891 183.976 37.4741 183.649 39.6612C184.825 37.7352 186.489 36.3316 188.35 35.6134C190.243 34.8953 192.235 34.6342 194.226 34.6994C198.241 34.83 202.256 35.8746 206.108 37.2782C209.405 38.5187 212.571 40.0202 215.607 41.7503C214.66 42.6643 213.746 43.611 212.865 44.6229C209.894 44.4923 206.957 44.525 204.019 44.8188C199.416 45.3084 194.781 46.353 190.602 48.6053C188.546 49.7478 186.62 51.2168 185.216 53.0121C183.78 54.8401 182.931 56.9619 182.67 59.0184C183.747 57.2231 185.249 55.8194 186.914 54.9381C188.579 54.0567 190.407 53.6323 192.235 53.5018C195.891 53.208 199.612 53.9588 203.17 55.1013C204.149 55.4277 205.096 55.7868 206.075 56.1785C205.161 58.6267 204.508 61.1402 204.117 63.6864C203.986 63.6864 203.855 63.6864 203.725 63.7517C199.253 64.5677 194.781 66.102 191.027 68.746C189.166 70.0518 187.501 71.6839 186.326 73.5445C185.118 75.4052 184.4 77.4617 184.172 79.4529C185.249 77.7228 186.62 76.3192 188.187 75.3399C189.721 74.328 191.451 73.7404 193.181 73.4466C196.674 72.8264 200.232 73.2181 203.627 74.0995C203.66 74.0995 203.692 74.0995 203.757 74.1321C203.888 75.7316 204.084 77.2985 204.345 78.8327C204.606 80.2364 204.9 81.5747 205.226 82.9131C202.941 83.5006 200.722 84.382 198.698 85.6551C196.805 86.8302 195.14 88.3971 194.03 90.2251C192.887 92.0204 192.3 93.979 192.071 95.9049C193.083 94.2728 194.422 92.9344 195.891 92.0204C197.359 91.1064 198.959 90.6494 200.558 90.4862C203.007 90.2577 205.488 90.6494 207.903 91.4002C207.903 91.4655 207.936 91.5308 207.968 91.5961C208.85 93.8158 209.862 95.9702 210.939 98.0594C209.96 98.4837 209.013 98.9734 208.099 99.5283C206.206 100.703 204.541 102.27 203.431 104.098C202.289 105.894 201.701 107.852 201.472 109.778C202.484 108.146 203.823 106.808 205.292 105.894C206.761 104.98 208.36 104.523 209.96 104.359C211.527 104.196 213.093 104.327 214.628 104.621C216.358 107.33 218.153 109.909 220.014 112.357C219.687 112.553 219.361 112.716 219.034 112.912C217.141 114.087 215.509 115.654 214.366 117.482C213.224 119.277 212.636 121.236 212.408 123.162C213.42 121.53 214.758 120.191 216.227 119.277C217.696 118.363 219.295 117.906 220.895 117.743C222.037 117.645 223.18 117.678 224.323 117.808C225.432 119.147 226.542 120.452 227.652 121.693C228.142 122.248 228.631 122.803 229.088 123.325C227.228 124.5 225.628 126.034 224.518 127.83C223.539 129.397 222.952 131.094 222.69 132.791C218.349 132.302 214.04 132.367 209.731 132.955C209.731 132.955 209.699 132.955 209.666 132.955C200.461 132.139 190.896 132.563 190.896 132.563C189.231 153.226 175.717 180.026 175.456 195.205C180.646 188.089 196.152 165.696 209.209 151.267C210.449 150.712 211.788 150.19 213.191 149.766C217.468 148.427 222.168 147.84 226.379 148.232C228.501 148.427 230.459 148.917 232.124 149.635C233.789 150.353 235.062 151.333 236.041 152.638C236.988 153.911 237.641 155.642 237.837 157.731C238.065 159.787 237.837 162.137 237.38 164.52C236.368 169.319 234.377 173.889 231.243 177.643C228.109 181.397 223.866 184.335 219.034 186.293C214.203 188.252 208.882 189.296 203.496 189.688C198.11 190.047 192.594 189.851 187.175 188.97C192.43 190.602 197.947 191.581 203.529 191.973C207.218 192.202 210.972 192.169 214.726 191.712C211.984 193.932 209.111 196.217 206.238 198.698C199.514 204.41 192.496 210.971 186 219.001C179.569 227.032 173.759 236.792 170.462 247.629C168.797 253.015 167.72 258.532 167.263 263.983C167.132 265.224 167.034 267.019 166.969 268.684C166.936 270.349 167.034 272.014 167.099 273.646C167.393 276.877 167.85 280.044 168.601 282.982C170.037 288.89 172.192 294.048 174.542 298.585C176.892 303.155 179.471 307.17 182.083 310.891C187.338 318.301 192.692 324.667 197.882 330.771C202.909 336.647 207.675 342.261 212.114 347.908C212.441 348.431 212.767 348.953 213.061 349.508L213.257 349.41C222.07 360.802 229.317 372.456 232.32 385.35C233.789 391.944 234.442 398.831 233.626 405.915C233.267 409.44 232.646 412.998 231.667 416.557C231.243 418.352 230.655 420.082 230.133 421.877C229.513 423.64 228.958 425.435 228.24 427.165C225.465 434.216 219.23 445.609 218.675 446.262C218.12 446.947 214.889 415.479 214.889 415.479C214.889 415.479 201.929 463.497 176.599 487C227.195 472.474 250.372 448.057 268.423 415.479C252.82 431.801 239.306 439.7 229.317 444.532C232.614 440.81 235.715 436.86 238.587 432.682C239.828 430.985 240.872 429.124 242.048 427.329C243.092 425.468 244.235 423.64 245.149 421.682C247.107 417.83 248.805 413.782 250.176 409.571C252.983 401.149 254.387 391.976 254.093 382.771C253.832 373.566 251.938 364.491 249.164 355.939C246.422 347.386 242.701 339.389 238.718 331.848C234.768 324.275 230.492 317.159 226.444 310.336C219.785 299.042 209.666 285.724 211.461 271.85C212.538 263.624 217.304 257.292 223.147 251.742C227.195 247.858 232.287 244.039 238.163 240.056C241.101 238.065 244.169 236.041 247.434 233.919C250.698 231.765 254.126 229.545 257.684 227.097C261.242 224.649 264.963 221.972 268.782 218.904C272.601 215.77 276.584 212.31 280.501 207.936C282.46 205.781 284.386 203.366 286.246 200.754C288.107 198.11 289.87 195.205 291.436 192.104C292.089 190.798 292.71 189.427 293.297 188.023C304.918 193.442 296.137 223.18 296.627 230.067C303.906 217.957 306.844 191.19 314.972 172.714L318.465 169.384C317.681 168.568 301.752 178.1 296.104 175.586C294.472 174.868 298.193 167.36 297.541 159.526C297.312 157.11 297.116 152.965 296.692 150.712C295.451 144.543 293.591 139.059 291.436 134.13C291.436 134.097 291.436 134.032 291.436 133.999C282.362 115.785 257.161 101.095 252.428 96.8516C247.63 92.6407 242.864 89.7681 239.501 85.5898C237.869 83.5006 236.4 81.3788 235.127 79.1918C233.887 76.972 232.908 74.7523 232.19 72.6632C231.471 70.574 231.112 68.6481 231.08 66.9833C231.08 66.9833 231.08 66.918 231.08 66.8854M276.29 56.864L279.816 63.4579C274.429 62.1195 269.533 58.4961 265.322 52.0981L276.29 56.864ZM238.979 138.341C235.911 136.252 232.614 134.913 229.35 134.032C227.26 133.477 225.204 133.085 223.115 132.857C224.061 131.518 225.204 130.409 226.444 129.658C227.913 128.744 229.513 128.287 231.112 128.124C231.863 128.058 232.581 128.058 233.332 128.091C236.009 131.094 238.457 133.901 240.481 136.578C242.178 138.798 243.484 140.854 244.3 142.552C244.626 143.27 244.855 143.89 245.018 144.445C243.386 141.997 241.232 139.94 238.947 138.406L238.979 138.341Z" fill="#CE181E"/>
<path d="M185.249 135.958C185.412 132.204 185.445 128.45 184.923 124.533L183.976 124.304C181.724 127.536 180.026 130.931 178.46 134.326C176.925 137.753 175.587 141.213 174.444 144.706C173.302 148.199 172.453 151.79 171.898 155.446C171.343 159.102 170.886 162.758 170.201 166.381L168.242 177.251L166.447 188.187C165.304 195.466 164.162 202.778 163.183 210.09L164.129 210.318C166.61 203.333 168.928 196.347 171.245 189.329L174.64 178.785L177.872 168.209C178.949 164.684 180.19 161.191 181.397 157.698C182.573 154.205 183.454 150.615 184.041 146.991C184.629 143.335 185.021 139.646 185.217 135.925L185.249 135.958Z" fill="#CE181E"/>
<path d="M176.696 126.296L166.577 123.39C158.939 144.87 132.139 159.2 119.767 174.934C147.024 180.189 158.22 183.747 161.093 189.427C167.654 174.411 162.464 148.297 176.696 126.296Z" fill="#CE181E"/>
<path d="M155.903 115.785C150.746 109.158 148.428 105.274 148.428 105.274C128.059 124.631 75.9609 134.326 54.2207 143.825C54.2207 143.825 111.444 141.638 108.277 171.637C122.347 154.597 143.923 120.877 155.903 115.817V115.785Z" fill="#CE181E"/>
<path d="M130.67 159.298L138.864 151.235C141.606 148.525 144.446 145.979 147.286 143.368C150.093 140.756 152.672 137.916 155.022 134.881C157.372 131.845 159.592 128.678 161.649 125.382C163.705 122.052 165.598 118.657 167.133 114.838L166.414 114.185C162.791 116.078 159.559 118.331 156.491 120.681C153.423 123.064 150.485 125.577 147.71 128.221C144.935 130.866 142.357 133.705 140.039 136.774C137.721 139.842 135.436 142.943 133.021 145.914L125.807 154.891L118.691 163.965C113.99 170.037 109.289 176.109 104.752 182.311L105.47 182.964C111.183 177.806 116.765 172.551 122.346 167.262L130.67 159.298Z" fill="#CE181E"/>
</svg>
