<svg width="203" height="40" viewBox="0 0 203 40" fill="none" xmlns="http://www.w3.org/2000/svg">
<path d="M29.9384 26.7418C28.3443 25.8195 26.2994 26.3662 25.3772 27.9604C25.0433 28.5404 24.651 29.0788 24.217 29.5712C24.0751 29.7298 23.9291 29.8842 23.7788 30.0344C23.7663 30.0469 23.7538 30.0595 23.7413 30.0678C23.5952 30.2097 23.445 30.3516 23.2906 30.4851L23.278 30.4935C21.976 31.6286 20.3944 32.4131 18.6959 32.7637C18.6625 32.772 18.6333 32.7762 18.5999 32.7804C18.433 32.8138 18.2702 32.8388 18.1033 32.8638C18.049 32.8722 17.9948 32.8805 17.9405 32.8847C17.7903 32.9056 17.6359 32.9181 17.4815 32.9306C17.4231 32.9348 17.3688 32.939 17.3104 32.9431C17.1059 32.9557 16.9014 32.964 16.6928 32.964C12.2066 32.964 8.39645 29.9969 7.1278 25.9238C6.83568 24.9849 6.6771 23.9833 6.6771 22.9484V4.16901C6.6771 2.32447 5.1831 0.830465 3.33855 0.830465C1.494 0.830465 0 2.32447 0 4.16901V22.9484C0 32.1544 7.4867 39.6411 16.6928 39.6411C17.035 39.6411 17.3772 39.6286 17.7194 39.6077C17.8153 39.6035 17.9071 39.591 18.0031 39.5869C18.2577 39.566 18.5123 39.5409 18.7668 39.5117C18.8586 39.4992 18.9504 39.4867 19.0423 39.4742C19.3219 39.4366 19.5973 39.3865 19.8727 39.3365C19.927 39.3239 19.9812 39.3156 20.0355 39.3073C22.8565 38.7313 25.4857 37.4335 27.6641 35.5305C27.6724 35.5222 27.6849 35.5138 27.6933 35.5055C27.9437 35.2843 28.1899 35.0589 28.4277 34.8252C28.4528 34.8002 28.4778 34.7752 28.5029 34.7501C28.7449 34.5081 28.9786 34.2619 29.204 34.0073C29.2123 33.999 29.2207 33.9906 29.229 33.9823C29.2499 33.9572 29.2707 33.9364 29.2916 33.9113C29.3375 33.8612 29.3751 33.807 29.4126 33.7527C30.0595 32.9932 30.6437 32.1794 31.1528 31.3031C32.0751 29.7089 31.5326 27.6641 29.9343 26.7418H29.9384ZM30.0553 0H16.8138C15.036 0 13.4836 1.33959 13.3667 3.11737C13.2415 5.06208 14.7814 6.6771 16.6969 6.6771H19.9103C20.6781 6.6771 21.0621 7.60772 20.5196 8.15023L17.7611 10.9087C16.5091 12.1607 16.3464 14.2014 17.5065 15.5409C18.1742 16.313 19.1049 16.6969 20.0313 16.6969C20.8868 16.6969 21.7381 16.3714 22.3933 15.7204L25.2394 12.8743C25.782 12.3318 26.7126 12.7157 26.7126 13.4836V17.4147C26.7126 19.1925 28.0563 20.7449 29.8299 20.8618C31.7746 20.987 33.3897 19.4471 33.3897 17.5316V3.34272C33.3897 1.49817 31.8957 0.00417249 30.0511 0.00417249L30.0553 0Z" fill="white"/>
<path d="M42.2954 2.16152C42.2954 2.01546 42.3371 1.89443 42.4164 1.79428C42.4957 1.69412 42.6293 1.64404 42.8171 1.64404H43.4222C43.6308 1.64404 43.7894 1.69829 43.9021 1.81514C44.0106 1.92782 44.0899 2.0864 44.14 2.28671L45.2667 6.78958C45.2834 6.86887 45.3084 6.9106 45.3377 6.9106C45.3544 6.9106 45.3752 6.86887 45.4003 6.78958L46.6814 2.19073C46.7232 2.03632 46.7983 1.91113 46.911 1.81514C47.0236 1.71916 47.1613 1.66908 47.3241 1.66908H47.9042C48.0669 1.66908 48.2088 1.71916 48.3298 1.81514C48.4509 1.91113 48.5301 2.03632 48.5719 2.19073L49.8656 6.78958C49.8906 6.86887 49.9198 6.9106 49.949 6.9106C49.9741 6.9106 49.9949 6.86887 50.0116 6.78958L51.1384 2.2742C51.1885 2.07388 51.2636 1.9153 51.3763 1.8068C51.4848 1.6983 51.6434 1.64404 51.8562 1.64404H52.4112C52.5907 1.64404 52.7159 1.69412 52.791 1.79011C52.8661 1.88609 52.9078 2.00711 52.9078 2.15317C52.9078 2.24081 52.8953 2.34097 52.8703 2.4453L51.105 8.96799C51.0549 9.14743 50.9715 9.28932 50.8463 9.39782C50.7211 9.50633 50.55 9.56058 50.333 9.56058H49.6444C49.4357 9.56058 49.2646 9.50633 49.1311 9.39782C48.9976 9.28932 48.9057 9.14743 48.8598 8.96799L47.6496 4.70716C47.6246 4.61118 47.5995 4.5611 47.5787 4.5611C47.5578 4.5611 47.5286 4.61118 47.5077 4.70716L46.3351 8.99303C46.2933 9.15578 46.2099 9.28932 46.0805 9.39782C45.9511 9.50633 45.78 9.56058 45.5714 9.56058H44.9287C44.72 9.56058 44.5489 9.50633 44.4154 9.39782C44.2818 9.28932 44.1942 9.15578 44.1566 8.99303L42.3664 2.45781C42.333 2.36183 42.3163 2.26585 42.3163 2.16569L42.2954 2.16152Z" fill="white"/>
<path d="M56.2881 6.35979L54.1806 2.44951C54.1222 2.33684 54.0972 2.23668 54.0972 2.14487C54.0972 2.00716 54.1472 1.89031 54.2432 1.78598C54.3392 1.68582 54.4728 1.63574 54.6439 1.63574H55.2364C55.4618 1.63574 55.6246 1.69417 55.7205 1.81102C55.8165 1.92787 55.9125 2.08227 56.0127 2.27841L57.1978 4.57784C57.2396 4.66548 57.2688 4.71138 57.2938 4.71138C57.3105 4.71138 57.3439 4.66548 57.3898 4.57784L58.5625 2.24085C58.6501 2.06141 58.7419 1.91952 58.8337 1.80684C58.9255 1.69417 59.08 1.63574 59.3011 1.63574H59.8812C60.044 1.63574 60.1692 1.68165 60.261 1.77346C60.3528 1.86527 60.3987 1.98212 60.3987 2.11983C60.3987 2.19912 60.3695 2.29511 60.3152 2.41196L58.1952 6.35979C58.1452 6.44743 58.1243 6.53924 58.1243 6.62687V8.76772C58.1243 9.2685 57.8656 9.51889 57.3481 9.51889H57.1436C56.6178 9.51889 56.3549 9.2685 56.3549 8.76772V6.61435C56.3549 6.51837 56.3298 6.43073 56.2839 6.35979H56.2881Z" fill="white"/>
<path d="M61.8926 1.85718C62.0136 1.73616 62.1764 1.67773 62.3767 1.67773H64.313C64.7638 1.67773 65.2019 1.73616 65.6193 1.85301C66.0408 1.96986 66.4122 2.17434 66.7335 2.47064C67.0548 2.76694 67.3136 3.16339 67.5097 3.66834C67.7017 4.1733 67.8018 4.8118 67.8018 5.58801C67.8018 6.36422 67.7059 7.00272 67.5097 7.50768C67.3177 8.01263 67.059 8.41326 66.7335 8.70538C66.4122 9.00168 66.0408 9.20616 65.6193 9.32301C65.1978 9.43986 64.7638 9.49829 64.313 9.49829H62.3767C62.1764 9.49829 62.0136 9.43569 61.8926 9.31467C61.7716 9.19364 61.709 9.03089 61.709 8.83058V2.34127C61.709 2.14096 61.7716 1.9782 61.8926 1.85718ZM63.6245 8.0335H64.0001C64.3005 8.0335 64.5676 8.00846 64.8097 7.95421C65.0517 7.89995 65.2604 7.79145 65.4315 7.62035C65.6067 7.44925 65.7361 7.20303 65.8321 6.8817C65.9239 6.56036 65.9698 6.12635 65.9698 5.58801C65.9698 5.04967 65.9239 4.61566 65.8321 4.29432C65.7403 3.97299 65.6067 3.72677 65.4315 3.55567C65.2562 3.38457 65.0517 3.27607 64.8097 3.22181C64.5676 3.16756 64.2964 3.14252 64.0001 3.14252H63.6245C63.5285 3.14252 63.4784 3.18425 63.4784 3.26355V7.89996C63.4784 7.98759 63.5285 8.0335 63.6245 8.0335Z" fill="white"/>
<path d="M69.0453 8.31728C69.0996 8.17539 69.1664 8.0335 69.2582 7.88744L72.0542 3.31362C72.0792 3.27189 72.0918 3.24685 72.0959 3.23433C72.0959 3.22181 72.1001 3.20929 72.1001 3.1926C72.1001 3.15922 72.0709 3.14252 72.0166 3.14252H69.6087C69.2039 3.14252 69.0036 2.92552 69.0036 2.48733V2.29537C69.0036 1.88222 69.2039 1.67773 69.6087 1.67773H73.8111C73.9947 1.67773 74.1408 1.73199 74.2451 1.83632C74.3495 1.94065 74.4037 2.08671 74.4037 2.27033V2.44143C74.4037 2.62087 74.3745 2.7878 74.3202 2.94221C74.266 3.09662 74.1867 3.2552 74.0907 3.40961L71.2822 7.8624C71.2571 7.90413 71.2446 7.92917 71.2404 7.94169C71.2363 7.95421 71.2363 7.96673 71.2363 7.98342C71.2363 8.0168 71.2655 8.0335 71.3197 8.0335H73.9572C74.362 8.0335 74.5623 8.2505 74.5623 8.68869V8.88065C74.5623 9.2938 74.362 9.49829 73.9572 9.49829H69.5252C69.3541 9.49829 69.2206 9.44403 69.1204 9.3397C69.0203 9.23537 68.9702 9.09349 68.9702 8.91404V8.74294C68.9702 8.59688 68.9953 8.45499 69.0495 8.3131L69.0453 8.31728Z" fill="white"/>
<path d="M76.9787 1.65283H77.1706C77.6965 1.65283 77.9594 1.90322 77.9594 2.40401V8.77229C77.9594 9.27307 77.6965 9.52346 77.1706 9.52346H76.9787C76.4529 9.52346 76.1899 9.27307 76.1899 8.77229V2.40401C76.1899 1.90322 76.4529 1.65283 76.9787 1.65283Z" fill="white"/>
<path d="M79.5536 8.87209C79.5703 8.81367 79.587 8.75107 79.6037 8.6843L81.6486 2.28263C81.7112 2.08232 81.8155 1.91956 81.9532 1.80271C82.0909 1.68587 82.2871 1.62744 82.5458 1.62744H83.2594C83.5182 1.62744 83.7185 1.68587 83.8604 1.80271C84.0022 1.91956 84.1024 2.07815 84.1692 2.28263L86.189 8.66343C86.2391 8.80115 86.2599 8.918 86.2599 9.01398C86.2599 9.1517 86.214 9.26855 86.1264 9.37287C86.0388 9.47303 85.9094 9.52311 85.7383 9.52311H85.1332C84.9245 9.52311 84.7659 9.46886 84.6616 9.36036C84.5573 9.25185 84.4738 9.09327 84.407 8.88044L84.14 8.00824C84.1149 7.92061 84.0565 7.8747 83.9563 7.8747H81.7028C81.6068 7.8747 81.5442 7.92061 81.5192 8.00824L81.2396 8.91383C81.177 9.11414 81.0935 9.26854 80.9976 9.3687C80.9016 9.46886 80.7555 9.51894 80.5635 9.51894H80.0169C79.8541 9.51894 79.7331 9.47303 79.6496 9.38539C79.5661 9.29776 79.5244 9.18091 79.5244 9.03485C79.5244 8.98477 79.5328 8.93052 79.5495 8.87209H79.5536ZM83.66 6.34731C83.66 6.34731 83.66 6.30141 83.6475 6.26385C83.6392 6.22212 83.6225 6.16787 83.5974 6.09275L82.8963 3.73073C82.8713 3.66813 82.8504 3.63474 82.8338 3.63474C82.8171 3.63474 82.7962 3.66813 82.7712 3.73073L82.0701 6.09275C82.045 6.16369 82.0283 6.22212 82.02 6.26385C82.0116 6.30558 82.0075 6.33479 82.0075 6.34731C82.0075 6.41409 82.045 6.4433 82.116 6.4433H83.5432C83.6141 6.4433 83.6517 6.40991 83.6517 6.34731H83.66Z" fill="white"/>
<path d="M88.0418 6.66456C88.0084 6.66456 87.9666 6.67708 87.9082 6.70212L87.7246 6.82314C87.6662 6.86487 87.6161 6.89409 87.5744 6.91495C87.5285 6.93582 87.4742 6.94417 87.4116 6.94417C87.349 6.94417 87.2822 6.91913 87.2196 6.86487C87.157 6.81062 87.0986 6.74803 87.0485 6.67708C86.9985 6.60614 86.9609 6.52685 86.9275 6.44756C86.8941 6.36826 86.8774 6.29315 86.8774 6.23055C86.8774 6.14291 86.8983 6.07197 86.9442 6.01772C86.9901 5.96764 87.0569 5.90921 87.1445 5.85496L88.0292 5.28741C88.0793 5.25402 88.1002 5.1956 88.1002 5.10796V2.40791C88.1002 1.90713 88.3631 1.65674 88.8889 1.65674H89.0809C89.6067 1.65674 89.8696 1.90713 89.8696 2.40791V3.95616C89.8696 4.01459 89.8905 4.03963 89.9322 4.03963C89.9656 4.03963 89.999 4.02711 90.0407 4.00207L90.4539 3.72246C90.5165 3.68073 90.5749 3.65569 90.6166 3.64317C90.6625 3.63066 90.7043 3.62648 90.7418 3.62648C90.8211 3.62648 90.8962 3.65152 90.9672 3.69743C91.0339 3.7475 91.0924 3.80593 91.1424 3.88105C91.1925 3.95616 91.2301 4.03128 91.2593 4.11057C91.2885 4.18986 91.301 4.26915 91.301 4.3401C91.301 4.42773 91.2801 4.49868 91.2384 4.55293C91.1967 4.60718 91.1341 4.65726 91.0465 4.70316L89.9447 5.40426C89.8947 5.43765 89.8738 5.48772 89.8738 5.56284V7.84975C89.8738 7.94573 89.9197 7.99581 90.0073 7.99581H92.3318C92.7533 7.99581 92.9619 8.21699 92.9619 8.65935V8.84297C92.9619 9.27698 92.7533 9.49816 92.3318 9.49816H88.7721C88.5634 9.49816 88.4007 9.43556 88.2838 9.31454C88.167 9.19351 88.1085 9.03076 88.1085 8.83045V6.76054C88.1085 6.69795 88.0877 6.66456 88.0459 6.66456H88.0418Z" fill="white"/>
<path d="M43.7057 16.0041C43.5388 15.8748 43.4595 15.6411 43.4595 15.303C43.4595 14.965 43.5429 14.7188 43.7057 14.5894C43.8726 14.4601 44.0938 14.3975 44.3776 14.3975C44.6614 14.3975 44.8992 14.4601 45.0662 14.5894C45.2331 14.7188 45.3207 14.9567 45.3207 15.303C45.3207 15.6494 45.2373 15.8748 45.0662 16.0041C44.8951 16.1335 44.6655 16.1961 44.3776 16.1961C44.0896 16.1961 43.8726 16.1335 43.7057 16.0041ZM43.7266 17.2144C43.8559 17.1017 44.0437 17.0433 44.2941 17.0433H44.4652C44.7156 17.0433 44.9034 17.0975 45.0328 17.2144C45.1621 17.327 45.2247 17.5148 45.2247 17.7694V22.3557C45.2247 22.6145 45.1621 22.7981 45.0328 22.9108C44.9034 23.0234 44.7156 23.0819 44.4652 23.0819H44.2816C44.0395 23.0819 43.8559 23.0276 43.7266 22.9108C43.5972 22.7981 43.5346 22.6103 43.5346 22.3557V17.7694C43.5346 17.5107 43.5972 17.327 43.7266 17.2144Z" fill="white"/>
<path d="M51.0963 15.2153H51.2883C51.8141 15.2153 52.0771 15.4657 52.0771 15.9665V22.3348C52.0771 22.8356 51.8141 23.086 51.2883 23.086H51.0963C50.5705 23.086 50.3076 22.8356 50.3076 22.3348V15.9665C50.3076 15.4657 50.5705 15.2153 51.0963 15.2153Z" fill="white"/>
<path d="M54.3597 15.4198C54.4807 15.2988 54.6518 15.2404 54.8688 15.2404H55.0608C55.5115 15.2404 55.862 15.4282 56.1124 15.8079L58.6163 19.7182C58.6414 19.7599 58.6622 19.7891 58.6747 19.81C58.6914 19.8309 58.7123 19.8392 58.7373 19.8392C58.7624 19.8392 58.7749 19.8058 58.7749 19.7432V15.9039C58.7749 15.6619 58.8375 15.4866 58.9627 15.3781C59.0879 15.2696 59.2673 15.2153 59.501 15.2153H59.6847C59.9184 15.2153 60.0978 15.2696 60.223 15.3781C60.3482 15.4866 60.4108 15.6619 60.4108 15.9039V22.3807C60.4108 22.8314 60.1854 23.0568 59.7347 23.0568H59.5511C59.284 23.0568 59.0754 23.0067 58.921 22.9107C58.7666 22.8147 58.633 22.677 58.5203 22.4975L55.9538 18.5038C55.9037 18.4162 55.8662 18.3703 55.8328 18.3703C55.8161 18.3703 55.8078 18.4078 55.8078 18.4788V22.389C55.8078 22.6311 55.7452 22.8064 55.62 22.9149C55.4948 23.0234 55.3153 23.0776 55.0816 23.0776H54.898C54.6643 23.0776 54.4849 23.0234 54.3597 22.9149C54.2345 22.8064 54.1719 22.6311 54.1719 22.389V15.9248C54.1719 15.7078 54.2303 15.5367 54.3513 15.4156L54.3597 15.4198Z" fill="white"/>
<path d="M62.6977 15.4197C62.8188 15.2987 62.9815 15.2402 63.1818 15.2402H66.9001C67.3049 15.2402 67.5052 15.4572 67.5052 15.8954V16.0749C67.5052 16.4964 67.3049 16.705 66.9001 16.705H64.4171C64.3294 16.705 64.2835 16.7509 64.2835 16.8386V18.5204C64.2835 18.608 64.3294 18.6539 64.4171 18.6539H65.8694C66.2742 18.6539 66.4745 18.8667 66.4745 19.2966V19.4677C66.4745 19.8892 66.2742 20.0978 65.8694 20.0978H64.4171C64.3294 20.0978 64.2835 20.1437 64.2835 20.2314V22.3388C64.2835 22.8396 64.0206 23.09 63.499 23.09H63.307C62.7812 23.09 62.5225 22.8396 62.5225 22.3388V15.9121C62.5225 15.7118 62.5809 15.5491 62.7019 15.428L62.6977 15.4197Z" fill="white"/>
<path d="M70.3934 22.9982C69.9927 22.8688 69.6464 22.6518 69.3542 22.343C69.0579 22.0342 68.8284 21.621 68.6657 21.1035C68.5029 20.5861 68.4194 19.9309 68.4194 19.1505C68.4194 18.3701 68.5071 17.7525 68.6865 17.2392C68.866 16.7217 69.1038 16.3085 69.4085 15.9914C69.709 15.6784 70.0595 15.453 70.456 15.3153C70.8524 15.1776 71.2656 15.1108 71.7037 15.1108C72.1711 15.1108 72.6093 15.1734 73.0099 15.3028C73.4106 15.4322 73.7611 15.6492 74.0574 15.958C74.3537 16.2668 74.5832 16.68 74.746 17.1974C74.9087 17.7149 74.9922 18.3701 74.9922 19.1505C74.9922 19.9309 74.9004 20.5485 74.7209 21.0618C74.5415 21.5793 74.2995 21.9924 73.9948 22.3096C73.6943 22.6226 73.3438 22.8521 72.9473 22.9856C72.5509 23.1234 72.1377 23.1901 71.6996 23.1901C71.2322 23.1901 70.7982 23.1234 70.3975 22.9982H70.3934ZM72.3464 21.6377C72.5342 21.5709 72.6844 21.4416 72.8055 21.2579C72.9265 21.0743 73.0141 20.8114 73.0725 20.4734C73.131 20.1354 73.156 19.693 73.156 19.1547C73.156 18.6163 73.1268 18.174 73.0642 17.8359C73.0016 17.4979 72.914 17.235 72.7929 17.0514C72.6719 16.8636 72.5175 16.7384 72.3339 16.6716C72.1461 16.6048 71.9333 16.5673 71.6912 16.5673C71.4325 16.5673 71.2113 16.6007 71.0319 16.6716C70.8482 16.7384 70.7022 16.8678 70.5853 17.0514C70.4685 17.235 70.3808 17.4979 70.3266 17.8359C70.2682 18.174 70.2431 18.6163 70.2431 19.1547C70.2431 19.693 70.2723 20.1354 70.3349 20.4734C70.3934 20.8114 70.4852 21.0743 70.6062 21.2579C70.7272 21.4457 70.8774 21.5709 71.0611 21.6377C71.2405 21.7045 71.4533 21.742 71.6954 21.742C71.9374 21.742 72.1628 21.7086 72.3506 21.6377H72.3464Z" fill="white"/>
<path d="M76.9241 15.4197C77.0451 15.2987 77.2079 15.2402 77.4082 15.2402H79.5407C80.4504 15.2402 81.1265 15.4531 81.5688 15.8829C82.007 16.3127 82.2282 16.9387 82.2282 17.7734C82.2282 18.8 81.861 19.5136 81.1265 19.9142C81.1098 19.9309 81.0931 19.9434 81.0764 19.9518C81.0597 19.9601 81.0514 19.9768 81.0514 20.0018C81.0514 20.0185 81.0639 20.0519 81.0889 20.0978L82.4577 22.3513C82.5245 22.4557 82.5537 22.5558 82.5537 22.6518C82.5537 22.7728 82.512 22.8772 82.4285 22.9606C82.345 23.0441 82.2157 23.0858 82.0487 23.0858H81.4061C81.1974 23.0858 81.0305 23.0357 80.9095 22.9272C80.7884 22.8229 80.6799 22.681 80.584 22.5058L79.4113 20.3983C79.3696 20.3273 79.3111 20.2898 79.2277 20.2898C79.2026 20.2898 79.1651 20.2898 79.1066 20.294C79.0524 20.294 79.0107 20.2981 78.9856 20.2981H78.6351C78.5474 20.2981 78.5015 20.344 78.5015 20.4317V22.3305C78.5015 22.8313 78.2386 23.0817 77.717 23.0817H77.5334C77.0075 23.0817 76.7446 22.8313 76.7446 22.3305V15.9038C76.7446 15.7035 76.8072 15.5407 76.9283 15.4197H76.9241ZM79.6825 18.8041C79.837 18.7749 79.9663 18.7248 80.0748 18.6456C80.1833 18.5704 80.2668 18.4619 80.321 18.32C80.3795 18.1782 80.4045 17.9945 80.4045 17.7692C80.4045 17.5438 80.3753 17.3727 80.321 17.2308C80.2668 17.089 80.1833 16.9805 80.0748 16.897C79.9663 16.8177 79.8328 16.7634 79.6825 16.7342C79.5323 16.705 79.3529 16.6925 79.1484 16.6925H78.6267C78.5391 16.6925 78.4932 16.7384 78.4932 16.826V18.7165C78.4932 18.8041 78.5391 18.85 78.6267 18.85H79.1484C79.3487 18.85 79.5281 18.8375 79.6825 18.8083V18.8041Z" fill="white"/>
<path d="M84.3278 15.4073C84.4529 15.2779 84.624 15.2153 84.8411 15.2153H85.9303C86.1014 15.2153 86.2558 15.2571 86.4018 15.3405C86.5479 15.424 86.6606 15.5742 86.7398 15.7829L88.1546 19.5221C88.1796 19.5763 88.2046 19.6055 88.2255 19.6055C88.2589 19.6055 88.2839 19.5763 88.2965 19.5221L89.7362 15.7704C89.8071 15.5784 89.9156 15.4407 90.0575 15.3572C90.1994 15.2738 90.3538 15.2362 90.5249 15.2362H91.5515C91.7602 15.2362 91.923 15.2946 92.0398 15.4156C92.1566 15.5367 92.2151 15.7078 92.2151 15.9248V22.364C92.2151 22.8397 91.9689 23.0776 91.4764 23.0776H91.2845C90.7837 23.0776 90.5333 22.8397 90.5333 22.364V17.7026C90.5333 17.6525 90.5208 17.6316 90.4957 17.6316C90.4707 17.6316 90.4498 17.6566 90.4373 17.7026L88.9099 21.5627C88.8682 21.6754 88.8098 21.7672 88.7263 21.8424C88.647 21.9133 88.5385 21.9509 88.4008 21.9509H87.9668C87.708 21.9509 87.5286 21.8173 87.4243 21.5502L85.8969 17.7026C85.8718 17.6525 85.851 17.6316 85.8343 17.6316C85.8092 17.6316 85.7967 17.6566 85.7967 17.7026V22.364C85.7967 22.8397 85.5505 23.0776 85.0581 23.0776H84.8661C84.3737 23.0776 84.1274 22.8397 84.1274 22.364V15.9498C84.1274 15.7161 84.19 15.5325 84.3152 15.4073H84.3278Z" fill="white"/>
<path d="M93.7086 22.4351C93.7253 22.3767 93.742 22.3141 93.7587 22.2473L95.8036 15.8456C95.8703 15.6453 95.9705 15.4826 96.1082 15.3657C96.2459 15.2489 96.4421 15.1904 96.7008 15.1904H97.4144C97.6732 15.1904 97.8735 15.2489 98.0154 15.3657C98.1573 15.4826 98.2574 15.6411 98.3242 15.8456L100.344 22.2264C100.394 22.3641 100.415 22.481 100.415 22.577C100.415 22.7147 100.369 22.8315 100.281 22.9359C100.194 23.036 100.064 23.0861 99.8933 23.0861H99.2882C99.0795 23.0861 98.9209 23.0318 98.8166 22.9233C98.7123 22.8148 98.6288 22.6563 98.5621 22.4434L98.295 21.5712C98.2699 21.4836 98.2115 21.4377 98.1113 21.4377H95.862C95.766 21.4377 95.7034 21.4836 95.6784 21.5712L95.3988 22.4768C95.3362 22.6771 95.2527 22.8315 95.1567 22.9317C95.0607 23.0318 94.9147 23.0819 94.7227 23.0819H94.176C94.0133 23.0819 93.8922 23.036 93.8088 22.9484C93.7253 22.8607 93.6836 22.7439 93.6836 22.5978C93.6836 22.5478 93.6919 22.4935 93.7086 22.4351ZM97.8109 19.9103C97.8109 19.9103 97.8109 19.8644 97.7983 19.8268C97.7858 19.7893 97.7733 19.7309 97.7483 19.6557L97.0472 17.2937C97.0221 17.2311 97.0013 17.1977 96.9846 17.1977C96.9679 17.1977 96.947 17.2311 96.9262 17.2937L96.2251 19.6557C96.2 19.7267 96.1833 19.7851 96.175 19.8268C96.1666 19.8686 96.1625 19.8978 96.1625 19.9103C96.1625 19.9771 96.2 20.0063 96.271 20.0063H97.6982C97.7691 20.0063 97.8067 19.9729 97.8067 19.9103H97.8109Z" fill="white"/>
<path d="M102.385 16.7175H101.104C100.699 16.7175 100.499 16.4922 100.499 16.0415V15.8704C100.499 15.4531 100.699 15.2402 101.104 15.2402H105.74C106.145 15.2402 106.345 15.4656 106.345 15.9163V16.0874C106.345 16.5089 106.145 16.7175 105.74 16.7175H104.421C104.334 16.7175 104.288 16.7634 104.288 16.8511V22.3347C104.288 22.8354 104.025 23.0858 103.499 23.0858H103.295C102.777 23.0858 102.518 22.8354 102.518 22.3347V16.8511C102.518 16.7634 102.472 16.7175 102.385 16.7175Z" fill="white"/>
<path d="M109.542 19.9228L107.435 16.0125C107.376 15.8998 107.351 15.7997 107.351 15.7079C107.351 15.5701 107.401 15.4533 107.497 15.349C107.593 15.2488 107.727 15.1987 107.898 15.1987H108.49C108.716 15.1987 108.878 15.2572 108.974 15.374C109.07 15.4909 109.166 15.6453 109.267 15.8414L110.452 18.1408C110.493 18.2285 110.523 18.2744 110.548 18.2744C110.564 18.2744 110.598 18.2285 110.644 18.1408L111.816 15.8038C111.904 15.6244 111.996 15.4825 112.088 15.3698C112.179 15.2572 112.334 15.1987 112.555 15.1987H113.135C113.298 15.1987 113.423 15.2446 113.515 15.3364C113.607 15.4283 113.653 15.5451 113.653 15.6828C113.653 15.7621 113.623 15.8581 113.569 15.9749L111.449 19.9228C111.399 20.0104 111.378 20.1022 111.378 20.1899V22.3307C111.378 22.8315 111.119 23.0819 110.602 23.0819H110.397C109.872 23.0819 109.609 22.8315 109.609 22.3307V20.1773C109.609 20.0814 109.584 19.9937 109.538 19.9228H109.542Z" fill="white"/>
<path d="M115.877 15.2156H116.069C116.595 15.2156 116.858 15.466 116.858 15.9668V18.2286C116.858 18.2954 116.874 18.3246 116.908 18.3246C116.933 18.3246 116.966 18.2954 117.016 18.2412L119.182 15.7581C119.32 15.5954 119.453 15.466 119.587 15.3658C119.72 15.2657 119.891 15.2156 120.1 15.2156H120.789C120.951 15.2156 121.077 15.2573 121.168 15.3366C121.26 15.4159 121.306 15.5202 121.306 15.6413C121.306 15.779 121.239 15.9167 121.114 16.0544L118.79 18.646C118.756 18.6793 118.74 18.7086 118.74 18.7294C118.74 18.7628 118.752 18.7962 118.777 18.8254L121.223 22.3351C121.294 22.4477 121.331 22.5521 121.331 22.648C121.331 22.7607 121.285 22.8609 121.198 22.9527C121.11 23.0403 120.964 23.0862 120.764 23.0862H120.05C119.841 23.0862 119.666 23.0362 119.528 22.9402C119.391 22.8442 119.266 22.7148 119.153 22.5521L117.567 20.19C117.525 20.1274 117.496 20.0941 117.471 20.0941C117.446 20.0941 117.408 20.1233 117.363 20.1775L116.949 20.6115C116.883 20.6825 116.853 20.7659 116.853 20.8536V22.3309C116.853 22.8317 116.591 23.0821 116.065 23.0821H115.873C115.347 23.0821 115.084 22.8317 115.084 22.3309V15.9626C115.084 15.4618 115.347 15.2114 115.873 15.2114L115.877 15.2156Z" fill="white"/>
<path d="M123.605 15.2153H123.797C124.323 15.2153 124.582 15.4657 124.582 15.9665V22.3348C124.582 22.8356 124.319 23.086 123.797 23.086H123.605C123.08 23.086 122.821 22.8356 122.821 22.3348V15.9665C122.821 15.4657 123.084 15.2153 123.605 15.2153Z" fill="white"/>
<path d="M129.285 22.1135C129.298 22.0509 129.323 21.9507 129.364 21.8214C129.46 21.5292 129.636 21.3874 129.886 21.3874C129.928 21.3874 129.974 21.3915 130.024 21.4041C130.078 21.4166 130.128 21.4291 130.174 21.4458C130.374 21.5167 130.596 21.5835 130.829 21.6461C131.063 21.7045 131.313 21.7379 131.58 21.7379C131.885 21.7379 132.14 21.6837 132.336 21.5668C132.532 21.4541 132.632 21.2622 132.632 20.9993C132.632 20.7656 132.569 20.5861 132.444 20.4609C132.319 20.3357 132.131 20.223 131.881 20.1271L131.046 19.8015C130.504 19.5929 130.078 19.3049 129.761 18.9419C129.448 18.5788 129.289 18.0905 129.289 17.4771C129.289 17.089 129.356 16.7468 129.49 16.4547C129.623 16.1625 129.807 15.9121 130.041 15.716C130.274 15.5199 130.55 15.3654 130.863 15.2611C131.176 15.1568 131.518 15.1025 131.881 15.1025C132.194 15.1025 132.503 15.1192 132.803 15.1568C133.104 15.1943 133.375 15.2611 133.625 15.3571C133.922 15.4614 134.072 15.6492 134.072 15.9121C134.072 15.9622 134.072 16.0206 134.059 16.0958C134.051 16.1667 134.026 16.2627 133.988 16.3754C133.922 16.5381 133.851 16.655 133.771 16.7259C133.692 16.7969 133.584 16.8344 133.446 16.8344C133.35 16.8344 133.25 16.8219 133.145 16.7927C133.041 16.7635 132.928 16.7301 132.812 16.6967C132.695 16.6633 132.569 16.6299 132.432 16.6007C132.294 16.5715 132.144 16.559 131.985 16.559C131.701 16.559 131.484 16.6174 131.33 16.7301C131.176 16.8428 131.101 17.0305 131.101 17.2851C131.101 17.5272 131.167 17.7066 131.301 17.8276C131.434 17.9487 131.639 18.0655 131.91 18.1782L132.941 18.5997C133.433 18.8 133.821 19.0629 134.101 19.3884C134.381 19.7139 134.527 20.1521 134.527 20.7071C134.527 21.1203 134.456 21.4792 134.322 21.7838C134.185 22.0926 133.988 22.3472 133.734 22.56C133.479 22.7729 133.175 22.9273 132.82 23.0316C132.465 23.1359 132.069 23.1902 131.635 23.1902C131.272 23.1902 130.929 23.161 130.612 23.0984C130.295 23.0358 130.003 22.9523 129.748 22.8396C129.594 22.777 129.477 22.7019 129.398 22.6143C129.319 22.5266 129.277 22.4181 129.277 22.2804C129.277 22.2303 129.281 22.1761 129.294 22.1093L129.285 22.1135Z" fill="white"/>
<path d="M137.323 16.7175H136.042C135.637 16.7175 135.437 16.4922 135.437 16.0415V15.8704C135.437 15.4531 135.637 15.2402 136.042 15.2402H140.678C141.083 15.2402 141.283 15.4656 141.283 15.9163V16.0874C141.283 16.5089 141.083 16.7175 140.678 16.7175H139.359C139.272 16.7175 139.226 16.7634 139.226 16.8511V22.3347C139.226 22.8354 138.963 23.0858 138.437 23.0858H138.233C137.715 23.0858 137.456 22.8354 137.456 22.3347V16.8511C137.456 16.7634 137.41 16.7175 137.323 16.7175Z" fill="white"/>
<path d="M144.167 22.9982C143.766 22.8688 143.42 22.6518 143.128 22.343C142.831 22.0342 142.602 21.621 142.439 21.1035C142.276 20.5861 142.193 19.9309 142.193 19.1505C142.193 18.3701 142.281 17.7525 142.46 17.2392C142.639 16.7217 142.877 16.3085 143.182 15.9914C143.482 15.6784 143.833 15.453 144.229 15.3153C144.626 15.1776 145.039 15.1108 145.477 15.1108C145.945 15.1108 146.383 15.1734 146.783 15.3028C147.184 15.4322 147.535 15.6492 147.831 15.958C148.127 16.2668 148.357 16.68 148.519 17.1974C148.682 17.7149 148.766 18.3701 148.766 19.1505C148.766 19.9309 148.674 20.5485 148.494 21.0618C148.315 21.5793 148.073 21.9924 147.768 22.3096C147.468 22.6226 147.117 22.8521 146.721 22.9856C146.324 23.1234 145.911 23.1901 145.473 23.1901C145.006 23.1901 144.572 23.1234 144.171 22.9982H144.167ZM146.124 21.6377C146.312 21.5709 146.462 21.4416 146.583 21.2579C146.704 21.0743 146.792 20.8114 146.85 20.4734C146.909 20.1354 146.934 19.693 146.934 19.1547C146.934 18.6163 146.904 18.174 146.842 17.8359C146.779 17.4979 146.692 17.235 146.571 17.0514C146.45 16.8636 146.295 16.7384 146.111 16.6716C145.924 16.6048 145.711 16.5673 145.469 16.5673C145.21 16.5673 144.989 16.6007 144.809 16.6716C144.626 16.7384 144.48 16.8678 144.363 17.0514C144.246 17.235 144.158 17.4979 144.104 17.8359C144.046 18.174 144.021 18.6163 144.021 19.1547C144.021 19.693 144.05 20.1354 144.113 20.4734C144.171 20.8114 144.263 21.0743 144.384 21.2579C144.505 21.4457 144.655 21.5709 144.839 21.6377C145.018 21.7045 145.231 21.742 145.473 21.742C145.715 21.742 145.94 21.7086 146.128 21.6377H146.124Z" fill="white"/>
<path d="M150.085 22.1135C150.097 22.0509 150.122 21.9507 150.164 21.8214C150.26 21.5292 150.435 21.3874 150.685 21.3874C150.727 21.3874 150.773 21.3915 150.823 21.4041C150.877 21.4166 150.927 21.4291 150.973 21.4458C151.174 21.5167 151.395 21.5835 151.629 21.6461C151.862 21.7045 152.113 21.7379 152.38 21.7379C152.684 21.7379 152.939 21.6837 153.135 21.5668C153.331 21.4541 153.431 21.2622 153.431 20.9993C153.431 20.7656 153.369 20.5861 153.244 20.4609C153.118 20.3357 152.931 20.223 152.68 20.1271L151.846 19.8015C151.303 19.5929 150.877 19.3049 150.56 18.9419C150.247 18.5788 150.089 18.0905 150.089 17.4771C150.089 17.089 150.155 16.7468 150.289 16.4547C150.423 16.1625 150.606 15.9121 150.84 15.716C151.074 15.5199 151.349 15.3654 151.662 15.2611C151.975 15.1568 152.317 15.1025 152.68 15.1025C152.993 15.1025 153.302 15.1192 153.603 15.1568C153.903 15.1943 154.174 15.2611 154.425 15.3571C154.721 15.4614 154.871 15.6492 154.871 15.9121C154.871 15.9622 154.871 16.0206 154.859 16.0958C154.85 16.1667 154.825 16.2627 154.788 16.3754C154.721 16.5381 154.65 16.655 154.571 16.7259C154.491 16.7969 154.383 16.8344 154.245 16.8344C154.149 16.8344 154.049 16.8219 153.945 16.7927C153.84 16.7635 153.728 16.7301 153.611 16.6967C153.494 16.6633 153.369 16.6299 153.231 16.6007C153.093 16.5715 152.943 16.559 152.785 16.559C152.501 16.559 152.284 16.6174 152.129 16.7301C151.975 16.8428 151.9 17.0305 151.9 17.2851C151.9 17.5272 151.967 17.7066 152.1 17.8276C152.234 17.9487 152.438 18.0655 152.709 18.1782L153.74 18.5997C154.233 18.8 154.621 19.0629 154.9 19.3884C155.18 19.7139 155.326 20.1521 155.326 20.7071C155.326 21.1203 155.255 21.4792 155.122 21.7838C154.984 22.0926 154.788 22.3472 154.533 22.56C154.279 22.7729 153.974 22.9273 153.619 23.0316C153.264 23.1359 152.868 23.1902 152.434 23.1902C152.071 23.1902 151.729 23.161 151.412 23.0984C151.094 23.0358 150.802 22.9523 150.548 22.8396C150.393 22.777 150.276 22.7019 150.197 22.6143C150.118 22.5266 150.076 22.4181 150.076 22.2804C150.076 22.2303 150.08 22.1761 150.093 22.1093L150.085 22.1135Z" fill="white"/>
<path d="M158.635 22.9982C158.235 22.8688 157.888 22.6518 157.592 22.343C157.296 22.0342 157.066 21.621 156.903 21.1035C156.741 20.5861 156.657 19.9309 156.657 19.1505C156.657 18.3701 156.745 17.7525 156.924 17.2392C157.1 16.7217 157.342 16.3085 157.646 15.9914C157.951 15.6784 158.297 15.453 158.694 15.3153C159.09 15.1776 159.503 15.1108 159.942 15.1108C160.409 15.1108 160.847 15.1734 161.248 15.3028C161.648 15.4322 161.999 15.6492 162.295 15.958C162.592 16.2668 162.821 16.68 162.984 17.1974C163.147 17.7149 163.23 18.3701 163.23 19.1505C163.23 19.9309 163.138 20.5485 162.959 21.0618C162.775 21.5793 162.533 21.9924 162.233 22.3096C161.928 22.6226 161.582 22.8521 161.185 22.9856C160.789 23.1234 160.376 23.1901 159.937 23.1901C159.47 23.1901 159.036 23.1234 158.635 22.9982ZM160.588 21.6377C160.772 21.5709 160.926 21.4416 161.047 21.2579C161.168 21.0743 161.256 20.8114 161.315 20.4734C161.373 20.1354 161.398 19.693 161.398 19.1547C161.398 18.6163 161.369 18.174 161.306 17.8359C161.248 17.4979 161.156 17.235 161.035 17.0514C160.914 16.8636 160.759 16.7384 160.576 16.6716C160.392 16.6048 160.175 16.5673 159.933 16.5673C159.674 16.5673 159.453 16.6007 159.274 16.6716C159.094 16.7426 158.944 16.8678 158.827 17.0514C158.71 17.235 158.623 17.4979 158.569 17.8359C158.514 18.174 158.485 18.6163 158.485 19.1547C158.485 19.693 158.514 20.1354 158.577 20.4734C158.639 20.8114 158.727 21.0743 158.848 21.2579C158.969 21.4457 159.119 21.5709 159.303 21.6377C159.487 21.7045 159.695 21.742 159.937 21.742C160.179 21.742 160.405 21.7086 160.593 21.6377H160.588Z" fill="white"/>
<path d="M164.302 15.7245C164.302 15.5784 164.344 15.4574 164.423 15.3573C164.503 15.2571 164.636 15.207 164.824 15.207H165.429C165.638 15.207 165.796 15.2613 165.909 15.3781C166.017 15.4908 166.097 15.6494 166.147 15.8497L167.274 20.3526C167.29 20.4319 167.315 20.4736 167.345 20.4736C167.361 20.4736 167.382 20.4319 167.407 20.3526L168.688 15.7537C168.73 15.5993 168.805 15.4741 168.918 15.3781C169.03 15.2821 169.168 15.2321 169.331 15.2321H169.911C170.074 15.2321 170.216 15.2821 170.337 15.3781C170.458 15.4741 170.537 15.5993 170.579 15.7537L171.872 20.3526C171.897 20.4319 171.927 20.4736 171.956 20.4736C171.981 20.4736 172.002 20.4319 172.014 20.3526L173.141 15.8372C173.191 15.6369 173.266 15.4783 173.379 15.3698C173.487 15.2613 173.646 15.207 173.859 15.207H174.414C174.589 15.207 174.719 15.2571 174.794 15.3531C174.869 15.4491 174.91 15.5701 174.91 15.7162C174.91 15.8038 174.898 15.904 174.873 16.0083L173.108 22.531C173.058 22.7104 172.974 22.8523 172.849 22.9608C172.724 23.0693 172.553 23.1236 172.336 23.1236H171.647C171.438 23.1236 171.267 23.0693 171.134 22.9608C171 22.8523 170.908 22.7104 170.862 22.531L169.652 18.2701C169.627 18.1742 169.602 18.1241 169.581 18.1241C169.56 18.1241 169.531 18.1742 169.51 18.2701L168.338 22.556C168.296 22.7188 168.213 22.8523 168.083 22.9608C167.954 23.0693 167.787 23.1236 167.574 23.1236H166.931C166.723 23.1236 166.552 23.0693 166.418 22.9608C166.285 22.8523 166.197 22.7188 166.159 22.556L164.369 16.0208C164.336 15.9248 164.319 15.8288 164.319 15.7287L164.302 15.7245Z" fill="white"/>
<path d="M175.457 22.4351C175.474 22.3767 175.491 22.3141 175.507 22.2473L177.552 15.8456C177.615 15.6453 177.719 15.4826 177.853 15.3657C177.99 15.2489 178.186 15.1904 178.445 15.1904H179.159C179.418 15.1904 179.618 15.2489 179.76 15.3657C179.902 15.4826 180.002 15.6411 180.069 15.8456L182.088 22.2264C182.138 22.3641 182.159 22.481 182.159 22.577C182.159 22.7147 182.113 22.8315 182.026 22.9359C181.938 23.036 181.809 23.0861 181.638 23.0861H181.033C180.824 23.0861 180.665 23.0318 180.561 22.9233C180.457 22.8148 180.369 22.6563 180.306 22.4434L180.039 21.5712C180.014 21.4836 179.956 21.4377 179.86 21.4377H177.606C177.51 21.4377 177.448 21.4836 177.427 21.5712L177.147 22.4768C177.085 22.6771 177.001 22.8315 176.905 22.9317C176.809 23.0318 176.663 23.0819 176.471 23.0819H175.925C175.762 23.0819 175.641 23.036 175.557 22.9484C175.474 22.8607 175.432 22.7439 175.432 22.5978C175.432 22.5478 175.44 22.4935 175.457 22.4351ZM179.564 19.9103C179.564 19.9103 179.564 19.8644 179.551 19.8268C179.543 19.7851 179.526 19.7309 179.501 19.6557L178.8 17.2937C178.775 17.2311 178.754 17.1977 178.741 17.1977C178.729 17.1977 178.704 17.2311 178.679 17.2937L177.978 19.6557C177.953 19.7267 177.936 19.7851 177.928 19.8268C177.919 19.8686 177.915 19.8978 177.915 19.9103C177.915 19.9771 177.953 20.0063 178.024 20.0063H179.451C179.522 20.0063 179.559 19.9729 179.559 19.9103H179.564Z" fill="white"/>
<path d="M183.825 15.4198C183.946 15.2988 184.117 15.2404 184.334 15.2404H184.526C184.976 15.2404 185.327 15.4282 185.577 15.8079L188.081 19.7182C188.106 19.7599 188.127 19.7891 188.14 19.81C188.156 19.8309 188.177 19.8392 188.202 19.8392C188.227 19.8392 188.24 19.8058 188.24 19.7432V15.9039C188.24 15.6619 188.302 15.4866 188.428 15.3781C188.553 15.2696 188.732 15.2153 188.966 15.2153H189.15C189.383 15.2153 189.563 15.2696 189.688 15.3781C189.813 15.4866 189.876 15.6619 189.876 15.9039V22.3807C189.876 22.8314 189.65 23.0568 189.2 23.0568H189.016C188.749 23.0568 188.54 23.0067 188.386 22.9107C188.231 22.8147 188.098 22.677 187.985 22.4975L185.419 18.5038C185.369 18.4162 185.331 18.3703 185.298 18.3703C185.281 18.3703 185.273 18.4078 185.273 18.4788V22.389C185.273 22.6311 185.21 22.8064 185.085 22.9149C184.96 23.0234 184.78 23.0776 184.546 23.0776H184.363C184.129 23.0776 183.95 23.0234 183.825 22.9149C183.699 22.8064 183.637 22.6311 183.637 22.389V15.9248C183.637 15.7078 183.695 15.5367 183.816 15.4156L183.825 15.4198Z" fill="white"/>
<path d="M192.167 15.4197C192.288 15.2987 192.451 15.2402 192.651 15.2402H196.536C196.941 15.2402 197.141 15.4572 197.141 15.8954V16.0749C197.141 16.4964 196.941 16.705 196.536 16.705H193.886C193.799 16.705 193.753 16.7509 193.753 16.8386V18.2408C193.753 18.3284 193.799 18.3743 193.886 18.3743H195.435C195.839 18.3743 196.04 18.5871 196.04 19.017V19.1881C196.04 19.6096 195.839 19.8182 195.435 19.8182H193.886C193.799 19.8182 193.753 19.8641 193.753 19.9518V21.4792C193.753 21.5584 193.799 21.6002 193.886 21.6002H196.707C197.112 21.6002 197.313 21.8214 197.313 22.2679V22.439C197.313 22.8605 197.112 23.0691 196.707 23.0691H192.651C192.451 23.0691 192.288 23.0065 192.167 22.8855C192.046 22.7645 191.983 22.6017 191.983 22.4014V15.9121C191.983 15.7118 192.046 15.5491 192.167 15.428V15.4197Z" fill="white"/>
<path d="M198.477 22.4686C198.485 22.4018 198.497 22.3141 198.514 22.2015C198.548 22.0012 198.602 21.8634 198.685 21.7967C198.769 21.7299 198.869 21.6923 198.99 21.6923C199.094 21.6923 199.19 21.7007 199.274 21.7174C199.357 21.7341 199.449 21.7424 199.545 21.7424C199.795 21.7424 200 21.709 200.154 21.6464C200.313 21.5797 200.434 21.4837 200.521 21.3501C200.609 21.2166 200.672 21.0455 200.705 20.8368C200.738 20.6282 200.755 20.3736 200.755 20.0731V15.9709C200.755 15.4701 201.018 15.2197 201.544 15.2197H201.736C202.262 15.2197 202.525 15.4701 202.525 15.9709V20.4028C202.525 20.7909 202.491 21.154 202.42 21.492C202.349 21.8301 202.212 22.1263 202.003 22.3809C201.794 22.6355 201.494 22.8358 201.106 22.9819C200.718 23.1279 200.204 23.1989 199.57 23.1989C199.466 23.1989 199.357 23.1947 199.249 23.1822C199.14 23.1696 199.036 23.1571 198.94 23.1404C198.794 23.1154 198.681 23.0611 198.593 22.9693C198.51 22.8817 198.468 22.769 198.468 22.6313C198.468 22.5896 198.468 22.5395 198.481 22.4727L198.477 22.4686Z" fill="white"/>
<path d="M44.2147 30.9275H44.2815C44.5402 30.9275 44.6738 31.0527 44.6738 31.3073V35.1591C44.6738 35.6057 44.703 35.9729 44.7656 36.2483C44.8282 36.5279 44.92 36.7408 45.0494 36.8952C45.1745 37.0454 45.3373 37.1497 45.5376 37.204C45.7379 37.2582 45.9758 37.2833 46.2596 37.2833C46.5434 37.2833 46.7812 37.2541 46.9815 37.1956C47.1819 37.1372 47.3446 37.0287 47.474 36.866C47.6033 36.7032 47.6993 36.482 47.7578 36.1983C47.8162 35.9145 47.8454 35.5514 47.8454 35.1007V31.3031C47.8454 31.0485 47.9748 30.9233 48.2377 30.9233H48.3044C48.5632 30.9233 48.6967 31.0485 48.6967 31.3031V35.2509C48.6967 35.7809 48.6425 36.2233 48.5381 36.5822C48.4338 36.9411 48.2794 37.229 48.0707 37.446C47.8663 37.663 47.6117 37.8174 47.307 37.9134C47.0024 38.0052 46.656 38.0553 46.2638 38.0553C45.8715 38.0553 45.5168 38.0136 45.2121 37.9301C44.9075 37.8467 44.6571 37.7006 44.4526 37.4961C44.2481 37.2916 44.0979 37.012 43.9935 36.6656C43.8892 36.3193 43.835 35.8769 43.835 35.3427V31.3073C43.835 31.0527 43.9643 30.9275 44.2272 30.9275H44.2147Z" fill="white"/>
<path d="M50.8794 32.6635H50.9461C51.0546 32.6635 51.1339 32.6928 51.184 32.747C51.2341 32.8013 51.2633 32.8722 51.2716 32.9598L51.305 33.4272C51.305 33.4773 51.3175 33.5023 51.3384 33.5023C51.3593 33.5023 51.3843 33.4773 51.4135 33.4272C51.7307 32.8931 52.1939 32.626 52.8032 32.626C53.4125 32.626 53.8048 32.7762 54.0677 33.0725C54.3306 33.3688 54.4641 33.8362 54.4641 34.4705V37.6171C54.4641 37.8633 54.3431 37.9844 54.0969 37.9844H54.0301C53.7755 37.9844 53.6504 37.8633 53.6504 37.6171V34.6875C53.6504 34.4497 53.6337 34.241 53.6086 34.0616C53.5836 33.8821 53.5293 33.7402 53.45 33.6275C53.3749 33.5149 53.2664 33.4314 53.1287 33.3772C52.991 33.3229 52.8157 33.2937 52.5987 33.2937C52.3149 33.2937 52.0687 33.398 51.8601 33.6025C51.6514 33.807 51.4928 34.049 51.3843 34.3245C51.3551 34.3954 51.3426 34.4538 51.3426 34.4997V37.6129C51.3426 37.8592 51.2174 37.9802 50.9628 37.9802H50.9086C50.654 37.9802 50.5288 37.8592 50.5288 37.6129V33.0141C50.5288 32.7846 50.6498 32.6677 50.8877 32.6677L50.8794 32.6635Z" fill="white"/>
<path d="M56.2376 31.5077C56.1416 31.4326 56.0957 31.2948 56.0957 31.1029C56.0957 30.9109 56.1416 30.7732 56.2376 30.7023C56.3336 30.6313 56.4546 30.5938 56.6048 30.5938C56.7551 30.5938 56.8719 30.6313 56.9679 30.7023C57.0639 30.7732 57.114 30.9067 57.114 31.1029C57.114 31.299 57.0639 31.4326 56.9679 31.5077C56.8719 31.5828 56.7509 31.6204 56.6048 31.6204C56.4546 31.6204 56.3294 31.5828 56.2376 31.5077ZM56.5714 32.697H56.6257C56.8803 32.697 57.0055 32.8181 57.0055 33.0643V37.6089C57.0055 37.8551 56.8803 37.9761 56.6257 37.9761H56.5714C56.3169 37.9761 56.1917 37.8551 56.1917 37.6089V33.0643C56.1917 32.8181 56.3169 32.697 56.5714 32.697Z" fill="white"/>
<path d="M58.3159 32.9683V32.9015C58.3159 32.8431 58.3326 32.793 58.3702 32.7555C58.4077 32.7179 58.4662 32.697 58.5454 32.697H58.8292C58.9878 32.697 59.088 32.793 59.1339 32.9808L60.1521 36.9829C60.1605 37.0246 60.1646 37.0539 60.173 37.0622C60.1813 37.0747 60.1855 37.0789 60.1939 37.0789L60.2064 37.0664L60.2398 36.9787L61.3248 33.2479C61.354 33.1686 61.3916 33.106 61.4333 33.0559C61.475 33.01 61.5501 32.985 61.6503 32.985H61.8798C61.98 32.985 62.0551 33.01 62.101 33.0559C62.1469 33.1018 62.1803 33.1644 62.2053 33.2479L63.3321 36.9704C63.3446 37.0121 63.3571 37.0413 63.3655 37.0539C63.3738 37.0664 63.378 37.0705 63.3863 37.0705L63.3989 37.058L63.4322 36.9704L64.4296 32.9767C64.4505 32.8765 64.4839 32.8014 64.5256 32.7596C64.5674 32.7179 64.6383 32.6929 64.7301 32.6929H64.9888C65.0681 32.6929 65.1266 32.7137 65.1558 32.7513C65.1892 32.793 65.2058 32.8348 65.2058 32.889C65.2058 32.9266 65.1975 32.9725 65.185 33.0309L63.9789 37.6965C63.9497 37.7925 63.908 37.8635 63.8496 37.9177C63.7911 37.972 63.6993 37.997 63.5783 37.997H63.2528C63.1318 37.997 63.0358 37.972 62.9774 37.9177C62.9148 37.8635 62.8689 37.7842 62.8438 37.684L61.7797 34.1451C61.7588 34.0951 61.7421 34.07 61.7379 34.07C61.7254 34.07 61.7045 34.0951 61.6837 34.1451L60.6529 37.6924C60.6237 37.7883 60.582 37.8593 60.5277 37.9135C60.4735 37.9678 60.3858 37.9928 60.2606 37.9928H59.9351C59.8183 37.9928 59.7306 37.9678 59.6764 37.9135C59.6221 37.8593 59.5762 37.78 59.547 37.6798L58.341 33.0351C58.3284 32.9975 58.3201 32.9725 58.3201 32.96L58.3159 32.9683Z" fill="white"/>
<path d="M66.2325 34.2243C66.3285 33.8905 66.4662 33.6067 66.654 33.3689C66.8418 33.131 67.0755 32.9474 67.3467 32.8138C67.6222 32.6844 67.9435 32.6177 68.3107 32.6177C68.6237 32.6177 68.8866 32.6678 69.1078 32.7679C69.329 32.8681 69.5084 33.01 69.6503 33.1894C69.7922 33.3688 69.8924 33.5859 69.9591 33.8362C70.0259 34.0866 70.0551 34.3579 70.0551 34.6542V34.8837C70.0551 34.9714 70.0551 35.0548 70.0426 35.1341C70.0343 35.2134 70.0051 35.2802 69.9508 35.3344C69.8965 35.3887 69.8298 35.4179 69.7505 35.4179H66.9837C66.9336 35.4179 66.9085 35.4429 66.9085 35.493C66.9085 36.1524 67.0254 36.6281 67.2549 36.9202C67.4844 37.2124 67.8809 37.3584 68.4359 37.3584C68.6905 37.3584 68.9033 37.3167 69.0828 37.2374C69.2581 37.1581 69.4208 37.0621 69.5669 36.9536C69.6253 36.9161 69.6795 36.8994 69.7296 36.8994C69.8173 36.8994 69.8924 36.9453 69.9591 37.0413L69.98 37.0746C70.0217 37.1331 70.0468 37.1915 70.0468 37.2499C70.0468 37.3083 70.0343 37.3542 70.0092 37.3918C69.9842 37.4294 69.9466 37.4627 69.8965 37.5003C69.6879 37.6589 69.4584 37.7924 69.2121 37.8968C68.9659 38.0011 68.6696 38.0553 68.3233 38.0553C67.9101 38.0553 67.5637 37.9886 67.2758 37.855C66.9878 37.7215 66.7583 37.5337 66.5872 37.2958C66.4161 37.0579 66.2867 36.77 66.2075 36.4403C66.1282 36.1065 66.0864 35.7434 66.0864 35.3428C66.0864 34.9421 66.1323 34.5582 66.2283 34.2243H66.2325ZM69.304 34.7126V34.5499C69.304 34.1451 69.2247 33.8279 69.0703 33.5984C68.9159 33.3688 68.6404 33.2562 68.2523 33.2562C67.5345 33.2562 67.113 33.6526 66.9837 34.4372C66.967 34.4956 66.9586 34.5499 66.9503 34.6041C66.9419 34.6584 66.9378 34.6959 66.9378 34.7168C66.9378 34.7585 66.9628 34.7836 67.0129 34.7836H69.2163C69.2747 34.7836 69.304 34.7585 69.304 34.7084V34.7126Z" fill="white"/>
<path d="M71.645 32.7598C71.7076 32.693 71.7869 32.6638 71.8871 32.6638H71.9956C72.1834 32.6638 72.2877 32.7848 72.3086 33.0227L72.342 33.4901C72.342 33.5485 72.3545 33.5777 72.3837 33.5777C72.3962 33.5777 72.4129 33.561 72.4254 33.536C72.584 33.2314 72.776 33.006 73.0013 32.8516C73.2267 32.7014 73.4729 32.6221 73.74 32.6221C73.9152 32.6221 74.0404 32.6429 74.1197 32.6888C74.199 32.7306 74.2408 32.8099 74.2408 32.9184C74.2408 32.9476 74.2408 32.9851 74.2366 33.0269C74.2366 33.0686 74.2282 33.1103 74.2199 33.1479C74.2074 33.2689 74.1698 33.3524 74.1114 33.3941C74.053 33.4317 73.9862 33.4525 73.9069 33.4525C73.8693 33.4525 73.8276 33.4525 73.7817 33.4484C73.7358 33.4484 73.6815 33.4442 73.6231 33.4442C73.089 33.4442 72.6842 33.7655 72.4087 34.4082C72.3795 34.4666 72.367 34.5209 72.367 34.5709V37.6215C72.367 37.8678 72.2418 37.9888 71.9872 37.9888H71.933C71.6784 37.9888 71.5532 37.8678 71.5532 37.6215V33.0102C71.5532 32.9184 71.5824 32.8349 71.645 32.7723V32.7598Z" fill="white"/>
<path d="M75.1047 37.3166C75.1464 37.1789 75.2341 37.1122 75.3635 37.1122C75.3927 37.1122 75.4344 37.1205 75.4928 37.133C75.6598 37.1914 75.8434 37.2499 76.0479 37.3083C76.2523 37.3667 76.4735 37.3959 76.7197 37.3959C77.0453 37.3959 77.2956 37.3292 77.4751 37.1956C77.6504 37.0621 77.7422 36.8576 77.7422 36.5822C77.7422 36.3652 77.6796 36.1982 77.5586 36.0897C77.4375 35.9812 77.2372 35.8769 76.9618 35.7934L76.3984 35.6098C76.0353 35.493 75.7349 35.326 75.4886 35.1007C75.2424 34.8753 75.1214 34.5582 75.1214 34.145C75.1214 33.6985 75.2716 33.3312 75.5763 33.0475C75.8809 32.7637 76.3191 32.626 76.8908 32.626C77.0661 32.626 77.2581 32.6427 77.4709 32.6802C77.6837 32.7178 77.8757 32.7679 78.0426 32.8305C78.1887 32.8805 78.2596 32.9724 78.2596 33.1017C78.2596 33.1226 78.2555 33.156 78.243 33.2061C78.2304 33.2561 78.2179 33.2937 78.2054 33.3312C78.1762 33.4022 78.147 33.4523 78.1136 33.4773C78.0802 33.5023 78.0343 33.5149 77.9675 33.5149C77.9258 33.5149 77.8799 33.5065 77.8382 33.4857C77.7964 33.469 77.7422 33.4523 77.6879 33.4356C77.5669 33.398 77.4417 33.3646 77.3123 33.3312C77.1871 33.2979 77.0411 33.2812 76.8825 33.2812C76.7531 33.2812 76.6279 33.2937 76.5069 33.3146C76.3859 33.3354 76.2816 33.3772 76.1939 33.4356C76.1063 33.494 76.0312 33.5733 75.9769 33.6693C75.9227 33.7653 75.8934 33.8905 75.8934 34.0449C75.8934 34.1742 75.9143 34.2869 75.9519 34.3829C75.9936 34.4747 76.052 34.5582 76.1313 34.6208C76.2106 34.6875 76.3108 34.7418 76.4276 34.796C76.5486 34.8461 76.6864 34.8962 76.8449 34.9463L77.3666 35.1215C77.713 35.2384 78.0009 35.397 78.2221 35.5973C78.4474 35.8018 78.5601 36.0939 78.5601 36.4778C78.5601 36.9911 78.3932 37.3834 78.0593 37.6547C77.7255 37.9259 77.2748 38.0636 76.703 38.0636C76.436 38.0636 76.1856 38.0386 75.9477 37.9885C75.714 37.9384 75.5137 37.88 75.3468 37.8133C75.2299 37.7715 75.1548 37.7298 75.1172 37.6881C75.0797 37.6463 75.063 37.5921 75.063 37.5211C75.063 37.4794 75.0755 37.4126 75.1047 37.325V37.3166Z" fill="white"/>
<path d="M80.2876 39.3199C80.3544 39.3366 80.4379 39.3491 80.5297 39.3491C80.6382 39.3491 80.7383 39.3074 80.826 39.2281C80.9178 39.1488 80.9971 38.9944 81.0722 38.7607L81.2558 38.1848C81.2683 38.1472 81.2809 38.1138 81.2809 38.0888C81.2809 38.0596 81.285 38.022 81.285 37.9803C81.285 37.9427 81.2725 37.8927 81.2433 37.8301L79.4405 33.1311C79.4196 33.0726 79.4029 33.0267 79.3987 32.9892C79.3904 32.9516 79.3862 32.9224 79.3862 32.9015C79.3862 32.8515 79.4071 32.8055 79.4447 32.7596C79.4864 32.7179 79.5448 32.6929 79.6241 32.6929H79.9079C80.0039 32.6929 80.0706 32.7179 80.1207 32.7638C80.1708 32.8097 80.2083 32.8807 80.2459 32.9767L81.6356 36.6866C81.6564 36.7534 81.6773 36.7826 81.6898 36.7826C81.7107 36.7826 81.7316 36.7492 81.7441 36.6866L82.8166 32.9641C82.8375 32.8765 82.8708 32.8097 82.9209 32.7638C82.9668 32.7179 83.0419 32.6929 83.1421 32.6929H83.3925C83.4718 32.6929 83.5302 32.7137 83.5719 32.7513C83.6137 32.793 83.6304 32.8389 83.6304 32.8974V32.9516C83.6304 32.9516 83.622 32.9933 83.6095 33.0267L81.8609 38.7231C81.7942 38.9401 81.7274 39.1279 81.6564 39.2865C81.5855 39.4451 81.502 39.5786 81.4061 39.6871C81.3101 39.7956 81.2016 39.8749 81.068 39.925C80.9387 39.9751 80.7759 40.0001 80.5798 40.0001C80.4003 40.0001 80.2209 39.9793 80.0498 39.9334C79.9121 39.9041 79.8453 39.8248 79.8453 39.6955V39.6204C79.8453 39.5828 79.8536 39.5452 79.8661 39.4993C79.9037 39.3533 79.983 39.2823 80.104 39.2823C80.1541 39.2823 80.2125 39.2907 80.2835 39.3074L80.2876 39.3199Z" fill="white"/>
<path d="M85.2039 33.3691H84.8575C84.7907 33.3691 84.7365 33.344 84.6906 33.2981C84.6447 33.2522 84.6196 33.1854 84.6196 33.0978V33.0435C84.6196 32.9559 84.6447 32.885 84.6906 32.8307C84.7365 32.7765 84.7991 32.7431 84.87 32.7264L85.2289 32.6513C85.2957 32.6429 85.3332 32.6054 85.3499 32.5302L85.4793 31.7916C85.5377 31.6038 85.6546 31.5078 85.8257 31.5078H85.8674C86.0469 31.5078 86.1387 31.5955 86.1387 31.7666V32.6137C86.1387 32.6805 86.1679 32.7097 86.2263 32.7097H87.3322C87.5283 32.7097 87.6243 32.8098 87.6243 33.0143V33.0686C87.6243 33.2647 87.5283 33.3607 87.3322 33.3607H86.2138C86.147 33.3607 86.1178 33.3941 86.1178 33.4567V36.6784C86.1178 36.9663 86.1804 37.1541 86.3014 37.2376C86.4224 37.3211 86.5852 37.3628 86.7897 37.3628C86.9566 37.3628 87.1027 37.3169 87.2362 37.2209C87.2738 37.1917 87.3072 37.1667 87.3447 37.15C87.3823 37.1333 87.4157 37.1207 87.4532 37.1207C87.5492 37.1207 87.6201 37.175 87.6702 37.2835C87.6994 37.3628 87.712 37.4296 87.712 37.4796C87.712 37.5798 87.6577 37.6633 87.5492 37.73C87.2613 37.9387 86.9065 38.043 86.485 38.043C86.122 38.043 85.834 37.947 85.6212 37.7551C85.4084 37.5631 85.2999 37.2793 85.2999 36.9037V33.4525C85.2999 33.3857 85.2665 33.3565 85.2039 33.3565V33.3691Z" fill="white"/>
<path d="M88.6841 34.2243C88.7801 33.8905 88.9178 33.6067 89.1056 33.3689C89.2934 33.131 89.5271 32.9474 89.7984 32.8138C90.0738 32.6844 90.3951 32.6177 90.7624 32.6177C91.0754 32.6177 91.3383 32.6678 91.5595 32.7679C91.7806 32.8681 91.9601 33.01 92.102 33.1894C92.2439 33.3688 92.344 33.5859 92.4108 33.8362C92.4776 34.0866 92.5068 34.3579 92.5068 34.6542V34.8837C92.5068 34.9714 92.5068 35.0548 92.4943 35.1341C92.4859 35.2134 92.4567 35.2802 92.4024 35.3344C92.3482 35.3887 92.2814 35.4179 92.2021 35.4179H89.4353C89.3852 35.4179 89.3602 35.4429 89.3602 35.493C89.3602 36.1524 89.477 36.6281 89.7066 36.9202C89.9361 37.2124 90.3325 37.3584 90.8876 37.3584C91.1421 37.3584 91.355 37.3167 91.5344 37.2374C91.7097 37.1581 91.8725 37.0621 92.0185 36.9536C92.0769 36.9161 92.1312 36.8994 92.1813 36.8994C92.2689 36.8994 92.344 36.9453 92.4108 37.0413L92.4317 37.0746C92.4734 37.1331 92.4984 37.1915 92.4984 37.2499C92.4984 37.3083 92.4859 37.3542 92.4609 37.3918C92.4358 37.4294 92.3983 37.4627 92.3482 37.5003C92.1395 37.6589 91.91 37.7924 91.6638 37.8968C91.4176 38.0011 91.1213 38.0553 90.7749 38.0553C90.3618 38.0553 90.0154 37.9886 89.7274 37.855C89.4395 37.7215 89.2141 37.5337 89.0389 37.2958C88.8636 37.0579 88.7384 36.77 88.6591 36.4403C88.5798 36.1065 88.5381 35.7434 88.5381 35.3428C88.5381 34.9421 88.584 34.5582 88.68 34.2243H88.6841ZM91.7556 34.7126V34.5499C91.7556 34.1451 91.6763 33.8279 91.5219 33.5984C91.3675 33.3688 91.0921 33.2562 90.704 33.2562C89.9862 33.2562 89.5647 33.6526 89.4353 34.4372C89.4228 34.4956 89.4103 34.5499 89.4019 34.6041C89.3936 34.6584 89.3894 34.6959 89.3894 34.7168C89.3894 34.7585 89.4144 34.7836 89.4645 34.7836H91.668C91.7264 34.7836 91.7556 34.7585 91.7556 34.7084V34.7126Z" fill="white"/>
<path d="M94.0632 33.3691H93.7169C93.6501 33.3691 93.5958 33.344 93.5499 33.2981C93.504 33.2522 93.479 33.1854 93.479 33.0978V33.0435C93.479 32.9559 93.504 32.885 93.5499 32.8307C93.5958 32.7765 93.6584 32.7431 93.7294 32.7264L94.0883 32.6513C94.1551 32.6429 94.1926 32.6054 94.2093 32.5302L94.3387 31.7916C94.3971 31.6038 94.5139 31.5078 94.685 31.5078H94.7268C94.9062 31.5078 94.998 31.5955 94.998 31.7666V32.6137C94.998 32.6805 95.0272 32.7097 95.0857 32.7097H96.1916C96.3877 32.7097 96.4837 32.8098 96.4837 33.0143V33.0686C96.4837 33.2647 96.3877 33.3607 96.1916 33.3607H95.0732C95.0064 33.3607 94.9772 33.3941 94.9772 33.4567V36.6784C94.9772 36.9663 95.0398 37.1541 95.1608 37.2376C95.2818 37.3211 95.4446 37.3628 95.6491 37.3628C95.816 37.3628 95.962 37.3169 96.0956 37.2209C96.1331 37.1917 96.1665 37.1667 96.2041 37.15C96.2417 37.1333 96.275 37.1207 96.3126 37.1207C96.4086 37.1207 96.4795 37.175 96.5296 37.2835C96.5588 37.3628 96.5713 37.4296 96.5713 37.4796C96.5713 37.5798 96.5171 37.6633 96.4086 37.73C96.1206 37.9387 95.7659 38.043 95.3444 38.043C94.9814 38.043 94.6934 37.947 94.4806 37.7551C94.2677 37.5631 94.1592 37.2793 94.1592 36.9037V33.4525C94.1592 33.3857 94.1258 33.3565 94.0632 33.3565V33.3691Z" fill="white"/>
<path d="M100.77 35.0175C100.74 35.0175 100.711 35.03 100.682 35.0592L100.356 35.2762C100.306 35.3054 100.265 35.3263 100.235 35.3346C100.206 35.343 100.169 35.3513 100.127 35.3513C100.056 35.3513 99.9934 35.3096 99.9433 35.2219C99.8932 35.1343 99.8682 35.055 99.8682 34.9841C99.8682 34.8881 99.9141 34.8171 100.01 34.7671L100.77 34.2663C100.799 34.2496 100.811 34.2204 100.811 34.1703V31.3075C100.811 31.0529 100.941 30.9277 101.204 30.9277H101.279C101.537 30.9277 101.671 31.0529 101.671 31.3075V33.5527C101.671 33.6027 101.683 33.632 101.704 33.6403C101.717 33.6403 101.746 33.6278 101.792 33.5986L102.389 33.1854C102.456 33.1437 102.51 33.1187 102.552 33.1187C102.639 33.1187 102.714 33.1604 102.773 33.2439C102.835 33.3273 102.865 33.415 102.865 33.5109C102.865 33.5902 102.823 33.657 102.735 33.7071L101.717 34.379C101.688 34.3998 101.675 34.4416 101.675 34.5V37.1166C101.675 37.175 101.709 37.2042 101.771 37.2042H104.388C104.605 37.2042 104.713 37.3211 104.713 37.5506V37.6174C104.713 37.8469 104.605 37.9637 104.388 37.9637H101.154C101.053 37.9637 100.97 37.9345 100.911 37.8719C100.853 37.8093 100.82 37.73 100.82 37.6299V35.1009C100.82 35.0508 100.803 35.0258 100.778 35.0258L100.77 35.0175Z" fill="white"/>
<path d="M105.711 34.041C105.84 33.6946 106.011 33.415 106.22 33.2063C106.429 32.9977 106.667 32.8474 106.93 32.7556C107.192 32.6638 107.464 32.6179 107.739 32.6179C108.044 32.6179 108.332 32.6596 108.603 32.7473C108.874 32.8349 109.108 32.981 109.308 33.1938C109.509 33.4025 109.663 33.6821 109.78 34.0326C109.897 34.3832 109.955 34.8172 109.955 35.3388C109.955 35.8605 109.888 36.282 109.759 36.6283C109.63 36.9747 109.459 37.2543 109.254 37.463C109.05 37.6716 108.812 37.8219 108.545 37.9137C108.278 38.0055 108.01 38.0514 107.743 38.0514C107.43 38.0514 107.142 38.0097 106.871 37.922C106.6 37.8344 106.366 37.6883 106.166 37.4838C105.966 37.2794 105.811 36.9998 105.694 36.6492C105.577 36.2987 105.519 35.8605 105.519 35.343C105.519 34.8255 105.586 34.3873 105.715 34.041H105.711ZM108.766 36.933C108.995 36.6242 109.108 36.0942 109.108 35.343C109.108 34.5918 108.995 34.0535 108.766 33.7488C108.536 33.4442 108.198 33.294 107.739 33.294C107.28 33.294 106.93 33.4442 106.704 33.7488C106.475 34.0535 106.362 34.5835 106.362 35.343C106.362 36.1025 106.475 36.6242 106.704 36.933C106.934 37.2418 107.276 37.3962 107.739 37.3962C108.202 37.3962 108.536 37.2418 108.766 36.933ZM106.667 31.6539V31.5997C106.667 31.5204 106.683 31.4578 106.708 31.416C106.738 31.3743 106.796 31.3242 106.884 31.2741L108.478 30.4395C108.549 30.4019 108.603 30.3853 108.641 30.3853C108.778 30.3853 108.845 30.4771 108.845 30.6565V30.765C108.845 30.8652 108.824 30.9528 108.787 31.0238C108.745 31.0947 108.67 31.1531 108.553 31.199L107.013 31.7958C106.925 31.8334 106.863 31.85 106.817 31.85C106.717 31.85 106.667 31.7833 106.667 31.6539Z" fill="white"/>
<path d="M112.3 37.9263C112.054 37.8386 111.841 37.6926 111.662 37.4881C111.482 37.2836 111.34 37.0082 111.24 36.6701C111.14 36.3279 111.09 35.9023 111.09 35.389C111.09 34.45 111.282 33.7531 111.662 33.3065C112.041 32.8558 112.601 32.6347 113.339 32.6347C113.527 32.6347 113.694 32.643 113.84 32.6639C113.986 32.6806 114.124 32.7056 114.261 32.7348C114.332 32.7557 114.382 32.7682 114.412 32.7682C114.449 32.7682 114.466 32.7348 114.466 32.6722V30.6983C114.466 30.4521 114.591 30.3311 114.846 30.3311H114.9C115.155 30.3311 115.28 30.4521 115.28 30.6983V37.7176C115.28 37.9263 115.175 38.0306 114.967 38.0306H114.879C114.691 38.0306 114.591 37.9471 114.574 37.7802L114.554 37.5089C114.554 37.4589 114.541 37.4338 114.512 37.4338C114.495 37.4338 114.474 37.4505 114.445 37.4756C114.307 37.6258 114.124 37.7635 113.898 37.8804C113.669 38.0014 113.41 38.0598 113.114 38.0598C112.818 38.0598 112.559 38.0181 112.313 37.9304L112.3 37.9263ZM113.894 37.2168C114.09 37.1041 114.257 36.9664 114.395 36.7995C114.437 36.7578 114.462 36.6993 114.462 36.6242V33.6195C114.462 33.5402 114.433 33.4902 114.374 33.4693C114.216 33.4025 114.04 33.3566 113.852 33.3232C113.665 33.2898 113.485 33.2731 113.323 33.2731C113.114 33.2731 112.922 33.2982 112.751 33.3483C112.58 33.3983 112.434 33.4985 112.313 33.6404C112.192 33.7865 112.096 33.9909 112.025 34.258C111.954 34.5251 111.92 34.8798 111.92 35.3222C111.92 35.6686 111.941 35.9732 111.979 36.2278C112.02 36.4865 112.091 36.6993 112.196 36.8663C112.3 37.0332 112.438 37.1626 112.613 37.2502C112.788 37.3378 113.005 37.3796 113.264 37.3796C113.489 37.3796 113.698 37.3253 113.894 37.2126V37.2168Z" fill="white"/>
<path d="M116.607 37.4087C116.636 37.3461 116.67 37.2835 116.703 37.2209L119.132 33.5318C119.17 33.4817 119.186 33.44 119.186 33.4107C119.186 33.3815 119.165 33.369 119.119 33.369H116.937C116.849 33.369 116.778 33.344 116.72 33.2939C116.661 33.2438 116.632 33.1729 116.632 33.0894V33.0143C116.632 32.9183 116.661 32.8474 116.72 32.7973C116.778 32.7472 116.849 32.7222 116.937 32.7222H119.962C120.042 32.7222 120.104 32.7472 120.146 32.7973C120.188 32.8474 120.213 32.9141 120.213 32.9934V33.0477C120.213 33.1937 120.167 33.3315 120.071 33.4692L117.63 37.1583C117.592 37.2167 117.575 37.2501 117.575 37.2668C117.575 37.296 117.592 37.3085 117.63 37.3085H120.104C120.292 37.3085 120.388 37.4045 120.388 37.5923V37.6799C120.388 37.8677 120.292 37.9637 120.104 37.9637H116.816C116.737 37.9637 116.674 37.9387 116.628 37.8927C116.582 37.8468 116.557 37.7842 116.557 37.7008V37.6257C116.557 37.5464 116.574 37.4754 116.599 37.4128L116.607 37.4087Z" fill="white"/>
<path d="M122.057 30.3184H122.111C122.366 30.3184 122.491 30.4394 122.491 30.6856V34.7962C122.491 34.838 122.508 34.863 122.533 34.863C122.541 34.863 122.57 34.8505 122.629 34.8296L123.117 34.6335C123.155 34.6168 123.18 34.6043 123.196 34.5917C123.213 34.5792 123.234 34.5542 123.255 34.525L124.544 32.9392C124.603 32.8599 124.661 32.8015 124.72 32.7639C124.778 32.7263 124.857 32.7096 124.957 32.7096H125.216C125.354 32.7096 125.421 32.7722 125.421 32.8933C125.421 32.9308 125.408 32.9726 125.383 33.0185C125.358 33.0644 125.308 33.1311 125.237 33.2188L123.922 34.8588C123.893 34.8964 123.881 34.9298 123.881 34.9673C123.881 34.984 123.893 35.0132 123.922 35.0633L125.617 37.6257C125.646 37.6632 125.659 37.7049 125.659 37.755C125.659 37.8134 125.638 37.8635 125.6 37.9053C125.558 37.947 125.5 37.972 125.421 37.972H125.17C124.962 37.972 124.807 37.8927 124.715 37.7342L123.217 35.4431C123.188 35.4013 123.163 35.3763 123.142 35.3763C123.113 35.3763 123.079 35.3847 123.046 35.3972L122.57 35.5725C122.512 35.5933 122.483 35.6392 122.483 35.7018V37.6006C122.483 37.8468 122.358 37.9679 122.103 37.9679H122.049C121.794 37.9679 121.669 37.8468 121.669 37.6006V30.6773C121.669 30.4311 121.794 30.3101 122.049 30.3101L122.057 30.3184Z" fill="white"/>
<path d="M126.969 31.5077C126.873 31.4326 126.827 31.2948 126.827 31.1029C126.827 30.9109 126.873 30.7732 126.969 30.7023C127.061 30.6313 127.186 30.5938 127.336 30.5938C127.486 30.5938 127.603 30.6313 127.699 30.7023C127.795 30.7732 127.845 30.9067 127.845 31.1029C127.845 31.299 127.795 31.4326 127.699 31.5077C127.603 31.5828 127.482 31.6204 127.336 31.6204C127.186 31.6204 127.061 31.5828 126.969 31.5077ZM127.307 32.697H127.361C127.616 32.697 127.741 32.8181 127.741 33.0643V37.6089C127.741 37.8551 127.616 37.9761 127.361 37.9761H127.307C127.052 37.9761 126.927 37.8551 126.927 37.6089V33.0643C126.927 32.8181 127.052 32.697 127.307 32.697Z" fill="white"/>
<path d="M97.7822 1.86939C97.9032 1.74837 98.066 1.68994 98.2663 1.68994H101.985C102.389 1.68994 102.59 1.90695 102.59 2.34513V2.52458C102.59 2.94607 102.389 3.15473 101.985 3.15473H99.5016C99.4139 3.15473 99.368 3.20064 99.368 3.28827V4.97007C99.368 5.0577 99.4139 5.10361 99.5016 5.10361H100.954C101.359 5.10361 101.559 5.31644 101.559 5.74628V5.91738C101.559 6.33887 101.359 6.54753 100.954 6.54753H99.5016C99.4139 6.54753 99.368 6.59344 99.368 6.68107V8.78853C99.368 9.28931 99.1051 9.53971 98.5835 9.53971H98.3915C97.8657 9.53971 97.6069 9.28931 97.6069 8.78853V2.36182C97.6069 2.16151 97.6654 1.99876 97.7864 1.87774L97.7822 1.86939Z" fill="white"/>
<path d="M104.785 1.66504H104.977C105.502 1.66504 105.761 1.91543 105.761 2.41621V8.7845C105.761 9.28528 105.498 9.53567 104.977 9.53567H104.785C104.259 9.53567 104 9.28528 104 8.7845V2.41621C104 1.91543 104.263 1.66504 104.785 1.66504Z" fill="white"/>
<path d="M107.401 8.32948C107.456 8.18759 107.522 8.04571 107.614 7.89964L110.41 3.32583C110.435 3.2841 110.448 3.25906 110.452 3.24654C110.452 3.23402 110.456 3.2215 110.456 3.20481C110.456 3.17142 110.427 3.15473 110.373 3.15473H107.965C107.56 3.15473 107.36 2.93773 107.36 2.49954V2.30757C107.36 1.89443 107.56 1.68994 107.965 1.68994H112.167C112.355 1.68994 112.497 1.74419 112.601 1.84852C112.705 1.95285 112.76 2.09891 112.76 2.28253V2.45364C112.76 2.63308 112.73 2.80001 112.676 2.95442C112.618 3.113 112.543 3.26741 112.447 3.42181L109.638 7.87461C109.613 7.91634 109.601 7.94137 109.596 7.95389C109.592 7.96641 109.592 7.97894 109.592 7.99563C109.592 8.02901 109.621 8.0457 109.676 8.0457H112.313C112.718 8.0457 112.918 8.26271 112.918 8.7009V8.89286C112.918 9.30601 112.718 9.51049 112.313 9.51049H107.881C107.71 9.51049 107.577 9.45624 107.476 9.35191C107.376 9.24758 107.326 9.10569 107.326 8.92625V8.75515C107.326 8.60909 107.351 8.4672 107.405 8.32531L107.401 8.32948Z" fill="white"/>
<path d="M116.144 6.37248L114.037 2.46221C113.978 2.34953 113.953 2.24938 113.953 2.15757C113.953 2.01985 114.003 1.903 114.099 1.79867C114.195 1.69852 114.329 1.64844 114.5 1.64844H115.092C115.318 1.64844 115.481 1.70686 115.576 1.82371C115.672 1.94056 115.768 2.09497 115.869 2.29111L117.054 4.59053C117.096 4.67817 117.125 4.72408 117.15 4.72408C117.166 4.72408 117.2 4.67817 117.246 4.59053L118.418 2.25355C118.506 2.0741 118.598 1.93221 118.69 1.81954C118.782 1.70686 118.936 1.64844 119.157 1.64844H119.737C119.9 1.64844 120.025 1.69434 120.117 1.78615C120.209 1.87796 120.255 1.99481 120.255 2.13253C120.255 2.21182 120.225 2.3078 120.171 2.42465L118.051 6.37248C118.001 6.46012 117.98 6.55193 117.98 6.63957V8.78041C117.98 9.2812 117.722 9.53159 117.204 9.53159H117C116.474 9.53159 116.211 9.2812 116.211 8.78041V6.62705C116.211 6.53106 116.186 6.44343 116.14 6.37248H116.144Z" fill="white"/>
<path d="M122.475 1.66531H122.667C123.192 1.66531 123.455 1.9157 123.455 2.41648V4.67835C123.455 4.74512 123.472 4.77433 123.505 4.77433C123.53 4.77433 123.564 4.74512 123.614 4.69087L125.78 2.20782C125.917 2.04507 126.051 1.9157 126.185 1.81554C126.318 1.71538 126.489 1.66531 126.698 1.66531H127.386C127.549 1.66531 127.674 1.70704 127.766 1.78633C127.858 1.86562 127.904 1.96995 127.904 2.09097C127.904 2.22869 127.837 2.3664 127.712 2.50412L125.387 5.09567C125.354 5.12905 125.337 5.15826 125.337 5.17913C125.337 5.21251 125.35 5.2459 125.375 5.27511L127.82 8.78476C127.891 8.89744 127.929 9.00177 127.929 9.09775C127.929 9.21043 127.883 9.31058 127.795 9.40239C127.708 9.49003 127.562 9.53594 127.361 9.53594H126.648C126.439 9.53594 126.264 9.48586 126.126 9.38987C125.988 9.29389 125.863 9.16452 125.75 9.00177L124.165 6.63975C124.123 6.57715 124.094 6.54376 124.069 6.54376C124.044 6.54376 124.006 6.57297 123.96 6.62722L123.547 7.06124C123.48 7.13218 123.451 7.21564 123.451 7.30328V8.78059C123.451 9.28137 123.188 9.53176 122.662 9.53176H122.47C121.945 9.53176 121.682 9.28137 121.682 8.78059V2.41231C121.682 1.91152 121.945 1.66113 122.47 1.66113L122.475 1.66531Z" fill="white"/>
<path d="M130.204 1.66504H130.395C130.921 1.66504 131.18 1.91543 131.18 2.41621V8.7845C131.18 9.28528 130.917 9.53567 130.395 9.53567H130.204C129.678 9.53567 129.419 9.28528 129.419 8.7845V2.41621C129.419 1.91543 129.682 1.66504 130.204 1.66504Z" fill="white"/>
</svg>
